<?xml version="1.0" encoding="UTF-8" standalone="no"?>
<!-- Created with Inkscape (http://www.inkscape.org/) -->

<svg
   width="99.0mm"
   height="99.0mm"
   viewBox="0 0 99.0 99.0"
   version="1.1"
   id="svg3064"
   sodipodi:docname="drawing.svg"
   inkscape:version="1.1 (c4e8f9ed74, 2021-05-24)"
   xmlns:inkscape="http://www.inkscape.org/namespaces/inkscape"
   xmlns:sodipodi="http://sodipodi.sourceforge.net/DTD/sodipodi-0.dtd"
   xmlns="http://www.w3.org/2000/svg"
   xmlns:svg="http://www.w3.org/2000/svg">
  <sodipodi:namedview
     id="namedview3066"
     pagecolor="#505050"
     bordercolor="#eeeeee"
     borderopacity="1"
     inkscape:pageshadow="0"
     inkscape:pageopacity="0"
     inkscape:pagecheckerboard="0"
     inkscape:document-units="mm"
     showgrid="false"
     inkscape:zoom="2.0888418"
     inkscape:cx="302.32064"
     inkscape:cy="199.15342"
     inkscape:window-width="1920"
     inkscape:window-height="1015"
     inkscape:window-x="0"
     inkscape:window-y="0"
     inkscape:window-maximized="1"
     inkscape:current-layer="g3232" />
  <defs
     id="defs3061" />
  <g
     inkscape:label="[fixed] BG"
     inkscape:groupmode="layer"
     sodipodi:insensitive="true"
     id="g3228">
    <rect
       x="0"
       y="0"
       width="99.0"
       height="99.0"
       style="fill:#FFFFFF;fill-opacity:1;stroke:none"
       id="rect3226" />
  </g>
  <g
     inkscape:label="B.SilkS"
     inkscape:groupmode="layer"
     id="g3230"
     sodipodi:insensitive="true"
     style="display:inline">
    <path
       inkscape:connector-curvature="0"
       id="path9155-5"
       d="m 33.076971,9.3594884 -3.1464,5.8120996 v 9.2294 l -0.0139,0.1196 0.0139,0.1196 v 26.7933 l -0.4178,0.4656 h -8.6215 l -1.7176,-2.5351 -0.056,-0.0641 -0.0698,-0.0454 -0.0794,-0.0247 -0.0845,-0.0019 -0.0968,0.0278 -0.0808,0.0564 -0.0589,0.0794 -0.0312,0.0968 -0.082,-0.1244 -0.0494,-0.0591 -0.0615,-0.0443 -0.0703,-0.0276 -0.076,-0.0093 -0.0996,0.0173 -0.0864,0.0478 -0.067,0.0731 -0.041,0.0935 -0.0271,-0.0436 -0.048,-0.0607 -0.0604,-0.0461 -0.0697,-0.0296 -0.076,-0.0113 -0.1166,0.0202 -0.0972,0.0611 -0.0683,0.0929 -0.0297,0.1159 -0.105,-0.1659 -0.0541,-0.0657 -0.0685,-0.0474 -0.0786,-0.0269 -0.0844,-0.0044 -0.0776,0.0168 -0.0696,0.0359 -0.0583,0.0526 -0.0438,0.067 -0.0252,0.0762 -0.005,0.0789 0.015,0.0776 0.0346,0.0722 2.1774,3.4269 h 9.4446 l -1.2021,1.338297 -0.0206,23.8235 6.1144,5.303 h 37.3424 l 5.3722,-4.6121 0.3254,-24.4421 -1.5863,-1.410497 h 8.0503 l 2.0514,-3.2452 0.0365,-0.0742 0.0156,-0.08 -0.0055,-0.0814 -0.027,-0.0783 -0.0465,-0.0682 -0.0615,-0.0526 -0.073,-0.0345 -0.0807,-0.0141 -0.0815,0.008 -0.0753,0.029 -0.0651,0.0479 -0.0513,0.0647 -0.0144,0.0212 -0.0472,-0.0625 -0.0602,-0.0479 -0.0701,-0.0311 -0.0768,-0.0125 -0.0773,0.0076 -0.0719,0.0265 -0.0631,0.0439 -0.051,0.0593 -0.0494,0.0745 -0.0259,-0.09 -0.0499,-0.0765 -0.0699,-0.0584 -0.0857,-0.0354 -0.0922,-0.0079 -0.0885,0.0197 -0.0788,0.0452 -0.0635,0.0682 -0.0693,0.1021 -0.0321,-0.083 -0.0529,-0.0691 -0.0698,-0.0514 -0.083,-0.0299 -0.088,-0.0047 -0.084,0.0202 -0.075,0.0433 -0.0612,0.0642 -1.706,2.3948 h -7.536 l -0.4829,-0.4295 -0.0325,-36.5904 -3.178,-5.5197996 h -0.3496 l -36.2103,-3e-4 m 1.3974,2.3979996 h 33.5367 l 2.4966,4.3431 0.0274,35.7985 h -38.6202 l 0.0756,-0.084 v -1.8442 h 11.7763 l 0.1327,-0.0177 0.1216,-0.051 0.1047,-0.0809 0.0816,-0.1074 0.0512,-0.1253 0.017,-0.1322 -0.017,-0.1322 -0.0512,-0.1252 -0.0816,-0.1074 -0.1047,-0.0809 -0.1216,-0.0511 -0.1327,-0.0176 h -11.7763 v -1.8952 h 0.0871 1.8645 l 2.7108,-0.0083 0.1361,-0.0142 0.1253,-0.0493 0.1082,-0.0809 0.0847,-0.1089 0.0528,-0.1278 0.0173,-0.135 -0.0183,-0.1349 -0.0539,-0.1274 -0.0855,-0.1081 -0.1089,-0.08 -0.1257,-0.0483 -0.1362,-0.0131 -2.7108,0.0083 h -1.8603 -0.0871 v -1.5667 h 4.253 l 0.1326,-0.0177 0.1216,-0.0511 0.1046,-0.081 0.0816,-0.1073 0.0511,-0.1252 0.0171,-0.1322 -0.0171,-0.1322 -0.0511,-0.1252 -0.0816,-0.1073 -0.1046,-0.081 -0.1216,-0.0511 -0.1326,-0.0177 h -0.4169 l -0.0736,-0.0506 -0.0806,-0.0367 -0.0856,-0.0219 -0.0888,-0.0066 h -3.5075 v -2.3344 h 11.4519 l 0.0916,-0.0066 0.0869,-0.0225 0.0805,-0.0371 0.0725,-0.0502 0.0629,-0.0621 0.0517,-0.0727 0.0388,-0.0818 0.0244,-0.0896 0.0082,-0.0927 -0.0081,-0.0904 -0.0233,-0.0863 -0.0374,-0.0805 -0.0505,-0.0728 -0.0626,-0.0633 -0.0736,-0.0518 -0.0835,-0.0387 -0.0824,-0.1125 -0.1073,-0.0845 -0.1255,-0.0527 -0.1373,-0.0171 h -11.1779 v -1.6752 h 4.2257 l 0.1327,-0.0177 0.1216,-0.0511 0.1046,-0.0809 0.0816,-0.1074 0.0511,-0.1252 0.017,-0.1322 -0.017,-0.1321 -0.0511,-0.1252 -0.0816,-0.1074 -0.1046,-0.081 -0.1216,-0.051 -0.1327,-0.0177 h -0.0809 l -0.081,-0.1211 -0.109,-0.0915 -0.1298,-0.0576 -0.1432,-0.019 h -3.6818 v -2.4798 l 0.5712,0.0019 2.9049,-0.0042 4.2142,-0.0125 0.098,-0.0099 0.0918,-0.0278 0.0838,-0.0441 0.0737,-0.0585 0.062,-0.0712 0.0483,-0.0821 0.0327,-0.0912 0.0154,-0.0986 -0.0036,-0.0997 -0.0217,-0.0945 -0.0382,-0.0874 -0.0531,-0.0782 -0.0663,-0.0671 -0.0779,-0.0539 -0.0878,-0.0388 -0.0962,-0.0217 -0.019,-0.0962 -0.0356,-0.0884 -0.0503,-0.0791 -0.0632,-0.068 -0.0742,-0.0555 -0.0836,-0.0411 -0.0909,-0.0253 -0.0966,-0.0077 -4.3453,0.0167 h -2.8924 v -2.8179 h 3.8929 l 0.1362,-0.0135 0.1257,-0.0488 0.1086,-0.0804 0.0851,-0.1086 0.0534,-0.1276 0.0179,-0.135 -0.0179,-0.1351 -0.0534,-0.1276 -0.0851,-0.1085 -0.1086,-0.0804 -0.1257,-0.0488 -0.1362,-0.0135 h -0.0103 l -0.0035,-0.1067 -0.0248,-0.1026 -0.045,-0.0953 -0.064,-0.0848 -0.0799,-0.0696 -0.0914,-0.0509 -0.0997,-0.031 -0.105,-0.0097 h -3.369 v -2.503 h 8.0587 l 0.1363,-0.0136 0.1256,-0.0487 0.1086,-0.0805 0.0852,-0.1085 0.0534,-0.1276 0.0178,-0.1351 -0.0178,-0.135 -0.0534,-0.1276 -0.0852,-0.1086 -0.1086,-0.0804 -0.1256,-0.0488 -0.1363,-0.0135 h -0.0535 l 0.0659,-0.1263 0.0289,-0.1373 -0.0089,-0.1401 -0.0471,-0.1347 -0.0819,-0.1164 -0.1082,-0.0877 -0.1275,-0.0549 -0.1401,-0.0179 h -7.5863 v -7.6456 l 2.4834,-4.6043 m 2.9239,2.9485 -0.0806,0.0098 -0.074,0.0302 -0.0637,0.0486 -0.0498,0.0648 -0.0313,0.0759 -0.0104,0.08 0.0104,0.0801 0.0313,0.0758 0.0498,0.0649 0.0637,0.0485 0.074,0.0303 0.0806,0.0097 h 0.0082 l -0.0671,0.0722 -0.0404,0.0876 -0.0118,0.096 0.0188,0.0972 0.0481,0.0862 0.0707,0.0651 0.087,0.0399 0.0972,0.0107 h 0.0515 l -0.0634,0.0699 -0.0387,0.0841 -0.0124,0.092 0.0159,0.0935 0.0431,0.0842 0.0648,0.0657 0.0811,0.0432 0.0922,0.0169 h 0.0955 l -0.0659,0.0703 -0.0405,0.0853 -0.0132,0.0938 0.0162,0.0955 0.0445,0.0858 0.0668,0.0663 0.0835,0.0427 0.0945,0.0152 h 26.6287 l 0.0946,-0.0151 0.0834,-0.0428 0.0669,-0.0663 0.0445,-0.0858 0.0162,-0.0955 -0.0132,-0.0938 -0.0406,-0.0853 -0.0659,-0.0703 h 0.0251 l 0.0987,-0.0079 0.0889,-0.0384 0.0726,-0.0645 0.0499,-0.0866 0.0198,-0.0982 -0.0116,-0.097 -0.041,-0.0886 -0.0683,-0.0726 0.0853,-0.0271 0.0726,-0.0498 0.0557,-0.0686 0.0346,-0.0836 0.0091,-0.0901 -0.0164,-0.0873 -0.0402,-0.0789 -0.0622,-0.0652 h 0.0494 l 0.0806,-0.0097 0.0739,-0.0303 0.0638,-0.0485 0.0498,-0.0649 0.0312,-0.0758 0.0104,-0.0801 -0.0104,-0.08 -0.0312,-0.0759 -0.0498,-0.0648 -0.0638,-0.0486 -0.0739,-0.0302 -0.0806,-0.0098 h -27.9628 m -6.6026,38.442 h 41.0989 l 1.9653,1.747497 -0.2929,22.767 -4.3412,3.7277 h -34.8385 l -5.0436,-4.3825 0.0165,-22.2567 1.4355,-1.602997 m 7.2776,3.640597 -0.3634,0.009 -0.3589,0.0257 -0.3541,0.0423 -0.3489,0.0584 -0.3432,0.0743 -0.3372,0.0896 -0.3309,0.1047 -0.324,0.1192 -0.3168,0.1334 -0.3094,0.1471 -0.3013,0.1605 -0.2931,0.1735 -0.2843,0.186 -0.2752,0.1982 -0.2658,0.2099 -0.2559,0.2212 -0.3487,0.2712 -0.3324,0.2899 -0.3152,0.3077 -0.2972,0.3248 -0.2783,0.341 -0.2585,0.3565 -0.238,0.3712 -0.2165,0.3851 -0.1943,0.3982 -0.1711,0.4105 -0.1471,0.4221 -0.1223,0.4328 -0.0966,0.4428 -0.07,0.452 -0.0427,0.4604 -0.0144,0.468 0.0102,0.3942 0.0301,0.3891 0.0497,0.3833 0.0687,0.3773 0.0872,0.3705 0.1052,0.3635 0.1227,0.3558 0.1397,0.3478 0.1563,0.3392 0.1722,0.3302 0.1878,0.3207 0.2029,0.3107 0.2173,0.3002 0.2314,0.2892 0.245,0.2778 0.258,0.2659 0.2705,0.2535 0.2826,0.2406 0.2941,0.2273 0.3052,0.2134 0.3158,0.1991 0.3258,0.1843 0.3354,0.169 0.3444,0.1533 0.353,0.1371 0.3611,0.1203 0.3687,0.1031 0.3757,0.0855 0.3823,0.0673 0.3884,0.0487 0.394,0.0295 0.3991,0.01 0.3562,-0.008 0.3522,-0.0236 0.3477,-0.0389 0.343,-0.0538 0.3379,-0.0685 0.3324,-0.0828 0.6471,-0.207 0.621,-0.26 0.5922,-0.3104 0.5605,-0.3579 0.5262,-0.4027 0.4889,-0.4449 0.449,-0.4841 0.4061,-0.5209 0.3606,-0.5547 0.3122,-0.5859 0.261,-0.6143 0.1104,-0.3169 0.0966,-0.3231 0.0824,-0.3287 0.0678,-0.3342 0.121,-0.4845 0.0893,-0.4959 0.0553,-0.5066 0.0189,-0.5166 -0.0098,-0.3821 -0.0291,-0.377 -0.0479,-0.3714 -0.0663,-0.3655 -0.0841,-0.3591 -0.1015,-0.3522 -0.1184,-0.3448 -0.1348,-0.337 -0.1508,-0.3287 -0.1663,-0.3199 -0.1812,-0.3107 -0.1957,-0.301 -0.2098,-0.2908 -0.2233,-0.2803 -0.2364,-0.2691 -0.249,-0.2576 -0.2611,-0.2456 -0.2728,-0.2332 -0.2839,-0.2201 -0.2946,-0.2068 -0.3048,-0.1929 -0.3145,-0.1786 -0.3238,-0.1637 -0.3325,-0.1485 -0.3408,-0.1328 -0.3486,-0.1166 -0.356,-0.0999 -0.3627,-0.0828 -0.3692,-0.0652 -0.3751,-0.0471 -0.3805,-0.0286 -0.3854,-0.01 v 0 m 26.7358,0 -0.6548,0.0282 -0.6391,0.083 -0.6212,0.1355 -0.6007,0.1857 -0.5779,0.2333 -0.5527,0.2788 -0.5251,0.3219 -0.495,0.3625 -0.4625,0.4008 -0.4278,0.4369 -0.3904,0.4704 -0.3509,0.5018 -0.3087,0.5306 -0.2643,0.5572 -0.2174,0.5813 -0.1682,0.6032 v -2.3129 l -0.0125,-0.1214 -0.0358,-0.1142 -0.0565,-0.1042 -0.0745,-0.0915 -0.0897,-0.0759 -0.1025,-0.0577 -0.1124,-0.0367 -0.1197,-0.0128 h -10.5427 l -0.1199,0.0128 -0.1128,0.0367 -0.1029,0.0577 -0.0904,0.0759 -0.075,0.0915 -0.057,0.1042 -0.0362,0.1142 -0.0126,0.1214 v 0.0125 l -0.0759,0.0931 -0.0575,0.1055 -0.0365,0.1149 -0.0128,0.1213 v 9.6174 l 0.0123,0.1199 0.0353,0.1138 0.0558,0.1048 0.074,0.0927 0.0897,0.0774 0.1031,0.059 0.1141,0.0377 0.1226,0.0133 h 10.7054 l 0.1226,-0.0133 0.114,-0.0377 0.1031,-0.059 0.0898,-0.0774 0.0739,-0.0927 0.0559,-0.1048 0.0352,-0.1138 0.0123,-0.1199 v -0.7983 l 0.0165,-0.0819 v -3.5736 l 0.1238,0.4633 0.1527,0.4508 0.1808,0.4373 0.2083,0.4226 0.2307,0.519 0.2678,0.4981 0.3033,0.4753 0.337,0.4509 0.3689,0.4247 0.3991,0.3969 0.4275,0.3672 0.4541,0.336 0.479,0.3028 0.5022,0.2681 0.5236,0.2316 0.5432,0.1933 0.5611,0.1534 0.5772,0.1117 0.5916,0.0683 0.6042,0.0231 0.3954,-0.01 0.3904,-0.0293 0.3849,-0.0483 0.3788,-0.0667 0.3723,-0.0847 0.3653,-0.1022 0.3579,-0.1192 0.3498,-0.1359 0.3413,-0.1519 0.3323,-0.1675 0.3229,-0.1827 0.3129,-0.1973 0.3024,-0.2115 0.2915,-0.2252 0.28,-0.2385 0.2681,-0.2512 0.2557,-0.2635 0.2428,-0.2753 0.2293,-0.2866 0.2154,-0.2975 0.201,-0.3079 0.1862,-0.3178 0.1707,-0.3272 0.1549,-0.3361 0.1385,-0.3447 0.1216,-0.3526 0.1042,-0.3601 0.0864,-0.3672 0.0681,-0.3738 0.0492,-0.3799 0.0299,-0.3855 0.0101,-0.3906 -0.0181,-0.5228 -0.0536,-0.513 -0.0878,-0.5023 -0.1209,-0.4902 -0.1527,-0.4772 -0.1833,-0.463 -0.2128,-0.4476 -0.241,-0.4311 -0.2681,-0.4135 -0.2939,-0.3949 -0.3185,-0.3749 -0.342,-0.354 -0.3642,-0.3318 -0.3852,-0.3086 -0.405,-0.2843 -0.4237,-0.2587 -0.4778,-0.322 -0.5028,-0.2859 -0.526,-0.2476 -0.5474,-0.2073 -0.5667,-0.1648 -0.5844,-0.1203 -0.6,-0.0737 -0.6138,-0.025 3e-4,-8e-4 m -27.161,1.4583 0.3493,0.009 0.3446,0.0256 0.3394,0.0422 0.3339,0.0583 0.3278,0.0741 0.3215,0.0894 0.3146,0.1042 0.3074,0.1188 0.2998,0.1328 0.2917,0.1464 0.2832,0.1597 0.2743,0.1725 0.2649,0.1849 0.2553,0.1968 0.245,0.2084 0.2346,0.2196 0.2235,0.2302 0.2121,0.2406 0.2003,0.2504 0.1881,0.2599 0.1754,0.269 0.1624,0.2775 0.1488,0.2858 0.135,0.2936 0.1206,0.301 0.106,0.3079 0.0907,0.3144 0.0752,0.3206 0.0592,0.3263 0.0428,0.3316 0.026,0.3364 0.0088,0.3409 -0.0289,0.5717 -0.0771,0.5582 -0.1671,0.4889 -0.205,0.4705 -0.2412,0.4501 -0.2755,0.428 -0.3082,0.4042 -0.3389,0.3784 -0.368,0.351 -0.3953,0.3216 -0.4208,0.2905 -0.4446,0.2577 -0.4665,0.2229 -0.4867,0.1865 -0.5051,0.1481 -0.5217,0.108 -0.5366,0.0662 -0.5498,0.0224 -0.3354,-0.008 -0.3309,-0.0247 -0.326,-0.0406 -0.3206,-0.0563 -0.3149,-0.0714 -0.3088,-0.0861 -0.3022,-0.1006 -0.2952,-0.1144 -0.2879,-0.1281 -0.2802,-0.1412 -0.272,-0.1539 -0.2635,-0.1663 -0.4997,-0.3681 -0.4608,-0.4126 -0.4185,-0.454 -0.3731,-0.4921 -0.1685,-0.2594 -0.156,-0.2677 -0.143,-0.2756 -0.1297,-0.2832 -0.1159,-0.2902 -0.1018,-0.297 -0.0872,-0.3033 -0.0722,-0.3093 -0.0569,-0.3147 -0.0412,-0.3199 -0.0249,-0.3246 -0.0084,-0.3288 0.0092,-0.344 0.0275,-0.339 0.0451,-0.3338 0.0624,-0.328 0.0792,-0.3218 0.0955,-0.3153 0.1114,-0.3081 0.1267,-0.3006 0.1415,-0.2927 0.1561,-0.2842 0.1699,-0.2754 0.1835,-0.2662 0.1964,-0.2563 0.209,-0.2462 0.2211,-0.2356 0.2326,-0.2244 0.432,-0.2872 0.4547,-0.2549 0.4759,-0.2207 0.4954,-0.1847 0.5134,-0.1468 0.5297,-0.1071 0.5445,-0.0657 0.5576,-0.0223 h -10e-5 m 27.7405,0 0.4457,0.0144 0.4376,0.0423 0.4285,0.0695 0.4188,0.0955 0.408,0.1207 0.3965,0.145 0.3842,0.1682 0.371,0.1905 0.2856,0.2245 0.2721,0.2397 0.2578,0.2542 0.243,0.2682 0.2274,0.2814 0.2111,0.294 0.1942,0.306 0.1766,0.3174 0.1584,0.3281 0.1394,0.3381 0.1198,0.3475 0.0995,0.3563 0.0786,0.3644 0.057,0.3719 0.0347,0.3787 0.0117,0.3849 -0.0084,0.3258 -0.0247,0.3215 -0.0408,0.3167 -0.0564,0.3117 -0.0716,0.3062 -0.0864,0.3004 -0.1008,0.2941 -0.1149,0.2875 0.1482,-0.4774 0.1094,-0.4931 0.0678,-0.5074 0.0232,-0.5204 -0.0161,-0.4419 -0.0476,-0.4331 -0.0779,-0.4231 -0.1071,-0.412 -0.1352,-0.3998 -0.162,-0.3864 -0.1877,-0.3719 -0.2124,-0.3562 -0.2358,-0.3394 -0.258,-0.3215 -0.2792,-0.3025 -0.2993,-0.2822 -0.318,-0.2609 -0.3358,-0.2384 -0.3523,-0.2148 -0.3677,-0.1901 -0.3321,-0.1909 -0.3451,-0.169 -0.3572,-0.146 -0.3685,-0.1218 -0.3789,-0.0967 -0.3884,-0.0704 -0.3971,-0.0431 -0.4049,-0.0146 -0.3724,0.0133 -0.3655,0.0384 -0.3586,0.0614 -0.3512,0.0825 0.5057,-0.1433 0.5211,-0.1054 0.5353,-0.065 0.5481,-0.0222 v 0 m -27.1725,0.1403 -0.5665,0.0287 -0.5504,0.084 -0.5319,0.1366 -0.5105,0.1865 -0.4865,0.2335 -0.4599,0.2778 -0.4306,0.3192 -0.3986,0.3579 -0.2564,0.2026 -0.2444,0.2167 -0.2317,0.2304 -0.2185,0.2433 -0.2046,0.2556 -0.19,0.2674 -0.175,0.2786 -0.1591,0.289 -0.1428,0.299 -0.1258,0.3084 -0.1081,0.317 -0.0899,0.3251 -0.071,0.3326 -0.0515,0.3395 -0.0313,0.3458 -0.0106,0.3515 0.0292,0.5836 0.0857,0.567 0.1393,0.5474 0.1902,0.525 0.238,0.4996 0.2831,0.4713 0.3254,0.4402 0.3646,0.4062 0.4012,0.3692 0.4348,0.3294 0.4655,0.2866 0.4934,0.241 0.5185,0.1925 0.5407,0.1411 0.56,0.0868 0.5765,0.0295 0.5655,-0.0286 0.5495,-0.0838 0.5308,-0.1363 0.5096,-0.1861 0.4857,-0.2329 0.4592,-0.277 0.43,-0.3184 0.3983,-0.3568 0.257,-0.2025 0.245,-0.2168 0.2323,-0.2304 0.219,-0.2434 0.2052,-0.2559 0.1906,-0.2676 0.1754,-0.2788 0.1596,-0.2893 0.1432,-0.2993 0.1262,-0.3087 0.1085,-0.3174 0.0901,-0.3255 0.0712,-0.333 0.0517,-0.34 0.0314,-0.3462 0.0107,-0.3519 -0.0292,-0.5837 -0.0857,-0.567 -0.1394,-0.5474 -0.1901,-0.525 -0.2381,-0.4996 -0.2831,-0.4713 -0.3253,-0.4402 -0.3647,-0.4061 -0.4011,-0.3692 -0.4348,-0.3294 -0.4655,-0.2866 -0.4935,-0.2411 -0.5185,-0.1925 -0.5407,-0.141 -0.56,-0.0868 -0.5765,-0.0296 v 0 m 27.014,1.1172 0.2785,0.008 0.2743,0.023 0.2697,0.0379 0.265,0.0521 0.514,0.1452 0.4908,0.1963 0.2543,0.1722 0.2427,0.1873 0.2305,0.2019 0.2176,0.2157 0.2041,0.229 0.1899,0.2416 0.1749,0.2534 0.1594,0.2647 0.1432,0.2753 0.1262,0.2852 0.1087,0.2945 0.0904,0.3031 0.0715,0.311 0.0519,0.3184 0.0317,0.325 0.0106,0.3309 -0.0252,0.5086 -0.0742,0.4936 -0.1206,0.4764 -0.1646,0.4565 -0.2062,0.4342 -0.2453,0.4094 -0.282,0.3822 -0.3162,0.3524 -0.348,0.3203 -0.3774,0.2856 -0.4043,0.2485 -0.4288,0.2088 -0.4508,0.1667 -0.4704,0.1222 -0.4876,0.0751 -0.5023,0.0256 -0.2778,-0.008 -0.2736,-0.0231 -0.2691,-0.0381 -0.2641,-0.0527 -0.5117,-0.1472 -0.4871,-0.2002 -0.4592,-0.2499 -0.4283,-0.2963 -0.3941,-0.3393 -0.3567,-0.379 -0.1841,-0.3082 -0.163,-0.3219 -0.1408,-0.3345 -0.1175,-0.3463 -0.0932,-0.3571 -0.0679,-0.3669 -0.0415,-0.3758 -0.014,-0.3837 0.026,-0.5233 0.0763,-0.508 0.1242,-0.4901 0.1695,-0.4697 0.2123,-0.4467 0.2525,-0.4213 0.2903,-0.3932 0.3256,-0.3626 0.3583,-0.3295 0.3884,-0.2939 0.4162,-0.2556 0.4414,-0.2148 0.4639,-0.1716 0.4842,-0.1256 0.5017,-0.0773 0.5169,-0.0263 v 0 m -27.6135,0.2168 0.495,0.0252 0.4805,0.074 0.4637,0.1203 0.4443,0.1642 0.4226,0.2057 0.3985,0.2448 0.372,0.2813 0.3431,0.3155 0.3117,0.3472 0.278,0.3766 0.2418,0.4033 0.2032,0.4278 0.1623,0.4498 0.1189,0.4694 0.0731,0.4864 0.0249,0.5012 -0.0249,0.501 -0.0732,0.4864 -0.1191,0.4694 -0.1624,0.4498 -0.2033,0.428 -0.2419,0.4034 -0.2779,0.3767 -0.3115,0.3472 -0.3057,0.2056 -0.3213,0.1822 -0.3358,0.1578 -0.3492,0.1319 -0.3614,0.1049 -0.3725,0.0765 -0.3826,0.0468 -0.3914,0.0159 -0.495,-0.0252 -0.4805,-0.074 -0.4636,-0.1204 -0.4443,-0.1643 -0.4227,-0.2058 -0.3985,-0.2448 -0.372,-0.2814 -0.343,-0.3156 -0.3117,-0.3474 -0.278,-0.3766 -0.2418,-0.4035 -0.2033,-0.4279 -0.1622,-0.4498 -0.1189,-0.4694 -0.0731,-0.4865 -0.0249,-0.5011 0.0248,-0.5006 0.073,-0.4859 0.1187,-0.4689 0.1619,-0.4494 0.2029,-0.4274 0.2413,-0.4031 0.2773,-0.3764 0.3111,-0.3471 0.3059,-0.206 0.3217,-0.1827 0.3361,-0.1582 0.3495,-0.1322 0.3619,-0.1051 0.3729,-0.0766 0.3831,-0.047 0.3919,-0.0159 v 0 m 22.424,1.1469 -0.2305,0.3612 -0.2043,0.3787 -0.1767,0.3949 -0.1477,0.4099 -0.1173,0.4235 -0.0855,0.4359 -0.0523,0.447 -0.0177,0.4567 0.0234,0.5253 0.0688,0.5121 0.1122,0.4969 0.1536,0.4798 0.1927,0.4607 0.23,0.4394 0.265,0.4162 0.2981,0.391 0.3489,0.4761 0.3931,0.4379 0.4339,0.3962 0.4714,0.3512 0.5056,0.3032 0.2646,0.1324 0.2719,0.1192 0.2787,0.1055 0.2852,0.0914 0.2913,0.077 0.2969,0.062 -0.4061,-0.0505 -0.3977,-0.0747 -0.3884,-0.0982 -0.3784,-0.1209 -0.3677,-0.1427 -0.356,-0.1639 -0.3437,-0.1842 -0.3305,-0.2037 -0.3165,-0.2226 -0.3018,-0.2404 -0.2863,-0.2577 -0.2699,-0.2741 -0.2528,-0.2896 -0.2349,-0.3045 -0.2162,-0.3186 -0.1967,-0.3318 -0.1937,-0.5628 -0.143,-0.5837 -0.0886,-0.6025 -0.0226,-0.3077 -0.0077,-0.3115 0.0233,-0.5486 0.0686,-0.5357 0.112,-0.5212 0.1534,-0.505 0.1929,-0.4872 0.2303,-0.4676 0.2659,-0.4463 0.2995,-0.4234 v 0 m -13.2261,0.1742 h 0.6404 l -0.1439,7.9104 h -0.4966 l 10e-5,-7.9104 m 1.6556,0 h 0.7591 l -0.1985,7.9104 h -0.7034 l 0.1428,-7.9104 m 1.7753,0 h 0.9501 l -0.0263,7.9104 h -1.1234 l 0.1996,-7.9104 m 1.9664,0 h 0.9312 l -0.0409,7.9104 h -0.9166 l 0.0263,-7.9104 m 1.9475,0 h 0.6918 l -0.084,7.9104 h -0.6498 l 0.042,-7.9104 m 1.7092,0 h 0.6519 v 7.9104 h -0.737 l 0.0851,-7.9104 m 15.9432,5.6006 -0.1338,0.4012 -0.1588,0.3892 -0.183,0.3765 -0.2061,0.3627 -0.2285,0.348 -0.2499,0.3325 -0.2703,0.316 -0.2898,0.2986 -0.3084,0.2802 -0.326,0.261 -0.3428,0.2408 -0.3586,0.2197 -0.3735,0.1978 -0.3874,0.1747 -0.4005,0.151 -0.4125,0.1261 0.3976,-0.145 0.3866,-0.1663 0.3748,-0.187 0.3624,-0.2068 0.3492,-0.2261 0.3352,-0.2444 0.3206,-0.2622 0.3052,-0.2792 0.289,-0.2955 0.2721,-0.311 0.2545,-0.3259 0.2362,-0.3399 0.2171,-0.3534 0.1972,-0.366 0.1767,-0.378 0.1555,-0.3893 v 0 m -39.4171,2.4097 0.2813,0.3041 0.2976,0.2882 0.3132,0.2718 0.328,0.2545 0.3423,0.2365 0.3558,0.2178 0.3687,0.1984 0.3808,0.1781 -0.387,-0.1708 -0.3735,-0.1934 -0.3591,-0.2152 -0.3437,-0.2359 -0.3276,-0.2558 -0.3105,-0.2749 -0.2926,-0.293 -0.2737,-0.3104 v 0 m 25.6061,2.8774 -0.3012,0.0155 -0.2928,0.0455 -0.2828,0.074 -0.2713,0.1009 -0.2583,0.1264 -0.2438,0.1502 -0.2277,0.1726 -0.2102,0.1934 -0.1912,0.2127 -0.1705,0.2305 -0.1485,0.2467 -0.1249,0.2615 -0.0997,0.2746 -0.0732,0.2862 -0.0449,0.2964 -0.0154,0.305 0.0101,0.2436 0.0296,0.2383 0.0477,0.2322 0.0648,0.2256 -0.0041,0.1008 0.0153,0.305 0.0449,0.2965 0.0731,0.2863 0.0997,0.2747 0.1248,0.2615 0.1484,0.2468 0.1705,0.2306 0.191,0.2128 0.2101,0.1935 0.2276,0.1727 0.2437,0.1503 0.2583,0.1264 0.2712,0.101 0.2827,0.0741 0.2928,0.0455 0.3012,0.0156 0.3013,-0.0156 0.2928,-0.0455 0.2828,-0.0741 0.2713,-0.101 0.2583,-0.1264 0.2437,-0.1503 0.2278,-0.1727 0.2102,-0.1935 0.1911,-0.2128 0.1706,-0.2306 0.1484,-0.2468 0.1249,-0.2615 0.0998,-0.2747 0.0731,-0.2863 0.045,-0.2965 0.0153,-0.305 -0.0101,-0.2434 -0.0295,-0.2379 -0.0478,-0.2319 -0.0647,-0.2253 0.0041,-0.1022 -0.0153,-0.305 -0.045,-0.2964 -0.0731,-0.2862 -0.0997,-0.2746 -0.1248,-0.2615 -0.1483,-0.2467 -0.1705,-0.2305 -0.191,-0.2127 -0.2101,-0.1934 -0.2277,-0.1726 -0.2437,-0.1502 -0.2582,-0.1264 -0.2712,-0.1009 -0.2828,-0.074 -0.2927,-0.0455 -0.3013,-0.0155 v 2e-4 m -12.4681,0.168 -0.2837,0.0137 -0.2762,0.0405 -0.2676,0.0658 -0.2576,0.0899 -0.2463,0.1128 -0.234,0.1343 -0.2201,0.1546 -0.2052,0.1737 -0.189,0.1913 -0.1714,0.2078 -0.1527,0.223 -0.1326,0.2368 -0.1114,0.2495 -0.0889,0.2609 -0.065,0.2708 -0.04,0.2797 -0.0993,0.2741 -0.0728,0.2856 -0.0447,0.2957 -0.0152,0.3043 0.0153,0.305 0.0449,0.2964 0.0731,0.2863 0.0997,0.2747 0.1248,0.2615 0.1484,0.2468 0.1705,0.2306 0.191,0.2128 0.2101,0.1936 0.2276,0.1726 0.2437,0.1504 0.2583,0.1264 0.2712,0.101 0.2827,0.074 0.2928,0.0456 0.3012,0.0155 0.2836,-0.0138 0.2763,-0.0404 0.2675,-0.0658 0.2576,-0.0898 0.2464,-0.1128 0.234,-0.1342 0.2203,-0.1546 0.2052,-0.1735 0.1891,-0.1913 0.1715,-0.2077 0.1528,-0.2229 0.1328,-0.2368 0.1115,-0.2494 0.0889,-0.2607 0.0652,-0.2708 0.0401,-0.2796 0.0993,-0.2743 0.0727,-0.2859 0.0448,-0.296 0.0152,-0.3045 -0.0153,-0.305 -0.045,-0.2964 -0.0731,-0.2864 -0.0998,-0.2746 -0.1249,-0.2616 -0.1485,-0.2468 -0.1705,-0.2306 -0.1912,-0.2128 -0.2102,-0.1935 -0.2277,-0.1727 -0.2438,-0.1503 -0.2583,-0.1264 -0.2713,-0.101 -0.2828,-0.0741 -0.2928,-0.0455 -0.3012,-0.0155 v 0 m 5.9884,0 -0.3013,0.0155 -0.2927,0.0455 -0.2828,0.0741 -0.2713,0.101 -0.2583,0.1264 -0.2438,0.1503 -0.2278,0.1727 -0.2102,0.1935 -0.1911,0.2128 -0.1706,0.2306 -0.1484,0.2468 -0.1249,0.2616 -0.0998,0.2746 -0.0731,0.2864 -0.045,0.2964 -0.0153,0.305 0.0154,0.3073 0.0455,0.2985 -0.0144,0.2658 0.0153,0.305 0.045,0.2964 0.0731,0.2863 0.0998,0.2747 0.1249,0.2615 0.1485,0.2468 0.1705,0.2306 0.1912,0.2128 0.2101,0.1936 0.2278,0.1726 0.2438,0.1504 0.2583,0.1264 0.2713,0.101 0.2828,0.074 0.2928,0.0456 0.3012,0.0155 0.3013,-0.0155 0.2927,-0.0456 0.2828,-0.074 0.2713,-0.101 0.2583,-0.1264 0.2438,-0.1504 0.2278,-0.1726 0.2102,-0.1936 0.1911,-0.2128 0.1706,-0.2306 0.1484,-0.2468 0.1249,-0.2615 0.0998,-0.2747 0.0731,-0.2863 0.045,-0.2964 0.0153,-0.305 -0.0156,-0.3051 -0.0453,-0.2965 0.0124,-0.27 -0.0154,-0.305 -0.0449,-0.2964 -0.0731,-0.2864 -0.0997,-0.2746 -0.1248,-0.2616 -0.1484,-0.2468 -0.1704,-0.2306 -0.1911,-0.2128 -0.2101,-0.1935 -0.2276,-0.1727 -0.2437,-0.1503 -0.2582,-0.1264 -0.2713,-0.101 -0.2827,-0.0741 -0.2928,-0.0455 -0.3012,-0.0155 h 0.001 m 6.4797,0.8599 0.1312,0.0146 -0.2362,0.0108 -0.231,0.0295 -0.2252,0.0473 -0.2189,0.0643 0.1834,-0.0703 0.1917,-0.0521 0.1992,-0.0324 0.2057,-0.0111 10e-5,-6e-4 m -12.6865,1.0406 0.1994,0.0101 0.1934,0.0295 0.1865,0.0482 0.1786,0.0657 0.1698,0.0823 0.1601,0.098 0.1493,0.1128 0.1376,0.1264 0.125,0.1393 0.1114,0.151 0.0969,0.162 0.0814,0.1718 0.065,0.1808 0.0476,0.1887 0.0293,0.1958 0.0099,0.2019 -0.0021,0.0244 -0.135,0.2279 -0.1628,0.2064 -0.1881,0.1822 -0.211,0.1553 -0.2315,0.1256 -0.2494,0.093 -0.265,0.0579 -0.2779,0.0199 -0.1994,-0.0101 -0.1934,-0.0295 -0.1864,-0.0482 -0.1786,-0.0657 -0.1697,-0.0823 -0.1599,-0.098 -0.1492,-0.1128 -0.1376,-0.1264 -0.1249,-0.1393 -0.1113,-0.151 -0.0968,-0.162 -0.0813,-0.1718 -0.0649,-0.1808 -0.0476,-0.1887 -0.0292,-0.1958 -0.01,-0.2019 0.0021,-0.0244 0.135,-0.2277 0.1627,-0.2064 0.1881,-0.1823 0.2108,-0.1552 0.2313,-0.1256 0.2493,-0.0932 0.2647,-0.0579 0.2778,-0.0199 v 0 m 6.254,0 0.3267,0.0275 0.308,0.0796 0.2852,0.1272 0.2583,0.1704 0.2272,0.209 0.192,0.2434 0.1527,0.2731 0.1092,0.2984 -0.0366,0.1712 -0.0507,0.1652 -0.141,0.3096 -0.1895,0.2771 -0.2327,0.2391 -0.2705,0.1957 -0.1478,0.0797 -0.1552,0.0669 -0.1621,0.0531 -0.1682,0.0389 -0.1737,0.0238 -0.1785,0.008 -0.3271,-0.0276 -0.3083,-0.0797 -0.2855,-0.1274 -0.2585,-0.1706 -0.2273,-0.2093 -0.1921,-0.2437 -0.1526,-0.2735 -0.109,-0.2989 0.0368,-0.1711 0.0509,-0.165 0.1413,-0.3092 0.1898,-0.2767 0.2329,-0.2388 0.2706,-0.1954 0.3031,-0.1464 0.1621,-0.0531 0.1681,-0.0388 0.1736,-0.0237 0.1784,-0.008 v 0 m 6.5785,0 0.2916,0.0218 0.2775,0.0634 0.2604,0.1018 0.2402,0.1371 0.2171,0.1693 0.1911,0.1983 0.1621,0.2242 0.13,0.2469 -0.0297,0.1802 -0.0451,0.1741 -0.0598,0.1673 -0.0736,0.1597 -0.0869,0.1514 -0.0994,0.1422 -0.1111,0.1324 -0.1222,0.1217 -0.1325,0.1102 -0.1421,0.0981 -0.1509,0.0851 -0.1591,0.0713 -0.1666,0.0568 -0.1732,0.0416 -0.1793,0.0255 -0.1845,0.009 -0.2916,-0.0218 -0.2775,-0.0634 -0.2603,-0.1018 -0.2403,-0.1371 -0.2171,-0.1693 -0.1911,-0.1983 -0.1621,-0.2242 -0.13,-0.2469 0.0297,-0.1802 0.045,-0.1741 0.0598,-0.1674 0.0736,-0.1597 0.0869,-0.1514 0.0994,-0.1422 0.1111,-0.1323 0.1222,-0.1217 0.1325,-0.1103 0.1421,-0.098 0.1509,-0.0851 0.1592,-0.0713 0.1665,-0.0568 0.1733,-0.0416 0.1792,-0.0255 0.1846,-0.009 v 0 m 0.78,3.7638 -0.1833,0.0704 -0.1918,0.0521 -0.1992,0.0323 -0.2057,0.0111 -0.1312,-0.0145 0.2362,-0.0109 0.231,-0.0294 0.2252,-0.0474 0.2189,-0.0643 -1e-4,6e-4"
       style="color:#000000;font-style:normal;font-variant:normal;font-weight:normal;font-stretch:normal;font-size:medium;line-height:normal;font-family:sans-serif;font-variant-ligatures:normal;font-variant-position:normal;font-variant-caps:normal;font-variant-numeric:normal;font-variant-alternates:normal;font-feature-settings:normal;text-indent:0;text-align:start;text-decoration:none;text-decoration-line:none;text-decoration-style:solid;text-decoration-color:#000000;letter-spacing:normal;word-spacing:normal;text-transform:none;writing-mode:lr-tb;direction:ltr;text-orientation:mixed;dominant-baseline:auto;baseline-shift:baseline;text-anchor:start;white-space:normal;shape-padding:0;clip-rule:nonzero;display:inline;overflow:visible;visibility:visible;isolation:auto;mix-blend-mode:normal;color-interpolation:sRGB;color-interpolation-filters:linearRGB;solid-color:#000000;solid-opacity:1;vector-effect:none;fill:#000000;fill-opacity:1;fill-rule:nonzero;stroke:none;stroke-width:1.0221;stroke-linecap:round;stroke-linejoin:miter;stroke-miterlimit:4;stroke-dasharray:none;stroke-dashoffset:0;stroke-opacity:1;color-rendering:auto;image-rendering:auto;shape-rendering:auto;text-rendering:auto;enable-background:accumulate" />
  </g>
  <g
     inkscape:label="F.Mask"
     inkscape:groupmode="layer"
     id="g3232"
     style="display:inline">
    <path
       id="path9155-5-3-6"
       style="color:#000000;font-style:normal;font-variant:normal;font-weight:normal;font-stretch:normal;font-size:medium;line-height:normal;font-family:sans-serif;font-variant-ligatures:normal;font-variant-position:normal;font-variant-caps:normal;font-variant-numeric:normal;font-variant-alternates:normal;font-feature-settings:normal;text-indent:0;text-align:start;text-decoration:none;text-decoration-line:none;text-decoration-style:solid;text-decoration-color:#000000;letter-spacing:normal;word-spacing:normal;text-transform:none;writing-mode:lr-tb;direction:ltr;text-orientation:mixed;dominant-baseline:auto;baseline-shift:baseline;text-anchor:start;white-space:normal;shape-padding:0;clip-rule:nonzero;display:inline;overflow:visible;visibility:visible;isolation:auto;mix-blend-mode:normal;color-interpolation:sRGB;color-interpolation-filters:linearRGB;solid-color:#000000;solid-opacity:1;vector-effect:none;fill:#000000;fill-opacity:1;fill-rule:nonzero;stroke:none;stroke-width:1.0221;stroke-linecap:round;stroke-linejoin:miter;stroke-miterlimit:4;stroke-dasharray:none;stroke-dashoffset:0;stroke-opacity:1;color-rendering:auto;image-rendering:auto;shape-rendering:auto;text-rendering:auto;enable-background:accumulate"
       d="m 31.982422,8.0488281 c -1.214031,2.2393179 -2.425543,4.4800079 -3.640625,6.7187499 0,11.849609 0,23.699219 0,35.548828 -2.209576,-0.01961 -4.419274,-0.0021 -6.628906,-0.0059 -0.647637,-0.903029 -1.13075,-2.133246 -2.230179,-2.557957 -0.936514,-0.209467 -1.908744,-0.0211 -2.853806,-0.04946 -1.403226,0.236872 -1.954729,2.156994 -1.013075,3.178086 0.825882,1.281011 1.643403,2.567136 2.458388,3.855117 2.507161,0 5.014323,0 7.521484,0 0.0086,8.097402 -0.01385,16.200949 -0.01563,24.300781 2.371348,2.05364 4.740952,4.109299 7.111328,6.164063 12.839844,0 25.679688,0 38.519532,0 2.12152,-1.820465 4.242411,-3.641667 6.363281,-5.462891 0.113402,-8.333963 0.223721,-16.667972 0.335937,-25.001953 1.919922,0 3.839844,0 5.759766,0 0.891335,-1.630919 2.193615,-3.066342 2.801466,-4.83165 0.184544,-1.343035 -1.300339,-2.352924 -2.530047,-2.057264 -1.066765,-0.176004 -2.375669,-0.0062 -2.913213,1.067571 -0.385237,0.435676 -0.592524,1.147854 -1.096877,1.408771 -1.837096,-0.01097 -3.674203,-0.01586 -5.511329,-0.01126 0.02729,-11.953734 -0.01762,-23.907556 -0.01758,-35.861328 -1.282652,-2.226128 -2.564527,-4.452709 -3.845703,-6.6796876 -12.807943,0 -25.615886,0 -38.423829,0 -0.05013,0.092448 -0.10026,0.1848958 -0.15039,0.2773437 z" />
    <path
       inkscape:connector-curvature="0"
       id="path9155-5-3"
       d="m 33.076971,9.3594884 -3.1464,5.8120996 v 9.2294 l -0.0139,0.1196 0.0139,0.1196 v 26.7933 l -0.4178,0.4656 h -8.6215 l -1.7176,-2.5351 -0.056,-0.0641 -0.0698,-0.0454 -0.0794,-0.0247 -0.0845,-0.0019 -0.0968,0.0278 -0.0808,0.0564 -0.0589,0.0794 -0.0312,0.0968 -0.082,-0.1244 -0.0494,-0.0591 -0.0615,-0.0443 -0.0703,-0.0276 -0.076,-0.0093 -0.0996,0.0173 -0.0864,0.0478 -0.067,0.0731 -0.041,0.0935 -0.0271,-0.0436 -0.048,-0.0607 -0.0604,-0.0461 -0.0697,-0.0296 -0.076,-0.0113 -0.1166,0.0202 -0.0972,0.0611 -0.0683,0.0929 -0.0297,0.1159 -0.105,-0.1659 -0.0541,-0.0657 -0.0685,-0.0474 -0.0786,-0.0269 -0.0844,-0.0044 -0.0776,0.0168 -0.0696,0.0359 -0.0583,0.0526 -0.0438,0.067 -0.0252,0.0762 -0.005,0.0789 0.015,0.0776 0.0346,0.0722 2.1774,3.4269 h 9.4446 l -1.2021,1.338297 -0.0206,23.8235 6.1144,5.303 h 37.3424 l 5.3722,-4.6121 0.3254,-24.4421 -1.5863,-1.410497 h 8.0503 l 2.0514,-3.2452 0.0365,-0.0742 0.0156,-0.08 -0.0055,-0.0814 -0.027,-0.0783 -0.0465,-0.0682 -0.0615,-0.0526 -0.073,-0.0345 -0.0807,-0.0141 -0.0815,0.008 -0.0753,0.029 -0.0651,0.0479 -0.0513,0.0647 -0.0144,0.0212 -0.0472,-0.0625 -0.0602,-0.0479 -0.0701,-0.0311 -0.0768,-0.0125 -0.0773,0.0076 -0.0719,0.0265 -0.0631,0.0439 -0.051,0.0593 -0.0494,0.0745 -0.0259,-0.09 -0.0499,-0.0765 -0.0699,-0.0584 -0.0857,-0.0354 -0.0922,-0.0079 -0.0885,0.0197 -0.0788,0.0452 -0.0635,0.0682 -0.0693,0.1021 -0.0321,-0.083 -0.0529,-0.0691 -0.0698,-0.0514 -0.083,-0.0299 -0.088,-0.0047 -0.084,0.0202 -0.075,0.0433 -0.0612,0.0642 -1.706,2.3948 h -7.536 l -0.4829,-0.4295 -0.0325,-36.5904 -3.178,-5.5197996 h -0.3496 l -36.2103,-3e-4"
       style="color:#000000;font-style:normal;font-variant:normal;font-weight:normal;font-stretch:normal;font-size:medium;line-height:normal;font-family:sans-serif;font-variant-ligatures:normal;font-variant-position:normal;font-variant-caps:normal;font-variant-numeric:normal;font-variant-alternates:normal;font-feature-settings:normal;text-indent:0;text-align:start;text-decoration:none;text-decoration-line:none;text-decoration-style:solid;text-decoration-color:#000000;letter-spacing:normal;word-spacing:normal;text-transform:none;writing-mode:lr-tb;direction:ltr;text-orientation:mixed;dominant-baseline:auto;baseline-shift:baseline;text-anchor:start;white-space:normal;shape-padding:0;clip-rule:nonzero;display:inline;overflow:visible;visibility:visible;isolation:auto;mix-blend-mode:normal;color-interpolation:sRGB;color-interpolation-filters:linearRGB;solid-color:#000000;solid-opacity:1;vector-effect:none;fill:#ffffff;fill-opacity:1;fill-rule:nonzero;stroke:none;stroke-width:1.0221;stroke-linecap:round;stroke-linejoin:miter;stroke-miterlimit:4;stroke-dasharray:none;stroke-dashoffset:0;stroke-opacity:1;color-rendering:auto;image-rendering:auto;shape-rendering:auto;text-rendering:auto;enable-background:accumulate"
       sodipodi:nodetypes="ccccccccccccccccccccccccccccccccccccccccccccccccccccccccccccccccccccccccccccccccccccccccccccccccccccccccc" />
  </g>
</svg>
