G04 #@! TF.GenerationSoftware,KiCad,Pcbnew,5.1.10*
G04 #@! TF.CreationDate,2021-09-05T11:20:00+02:00*
G04 #@! TF.ProjectId,badge,62616467-652e-46b6-9963-61645f706362,rev?*
G04 #@! TF.SameCoordinates,Original*
G04 #@! TF.FileFunction,Paste,Top*
G04 #@! TF.FilePolarity,Positive*
%FSLAX46Y46*%
G04 Gerber Fmt 4.6, Leading zero omitted, Abs format (unit mm)*
G04 Created by KiCad (PCBNEW 5.1.10) date 2021-09-05 11:20:00*
%MOMM*%
%LPD*%
G01*
G04 APERTURE LIST*
%ADD10R,0.700000X0.700000*%
%ADD11C,0.100000*%
G04 APERTURE END LIST*
G36*
G01*
X158880000Y-119070000D02*
X158880000Y-118730000D01*
G75*
G02*
X159020000Y-118590000I140000J0D01*
G01*
X159300000Y-118590000D01*
G75*
G02*
X159440000Y-118730000I0J-140000D01*
G01*
X159440000Y-119070000D01*
G75*
G02*
X159300000Y-119210000I-140000J0D01*
G01*
X159020000Y-119210000D01*
G75*
G02*
X158880000Y-119070000I0J140000D01*
G01*
G37*
G36*
G01*
X157920000Y-119070000D02*
X157920000Y-118730000D01*
G75*
G02*
X158060000Y-118590000I140000J0D01*
G01*
X158340000Y-118590000D01*
G75*
G02*
X158480000Y-118730000I0J-140000D01*
G01*
X158480000Y-119070000D01*
G75*
G02*
X158340000Y-119210000I-140000J0D01*
G01*
X158060000Y-119210000D01*
G75*
G02*
X157920000Y-119070000I0J140000D01*
G01*
G37*
G36*
G01*
X168120000Y-117030000D02*
X168120000Y-117370000D01*
G75*
G02*
X167980000Y-117510000I-140000J0D01*
G01*
X167700000Y-117510000D01*
G75*
G02*
X167560000Y-117370000I0J140000D01*
G01*
X167560000Y-117030000D01*
G75*
G02*
X167700000Y-116890000I140000J0D01*
G01*
X167980000Y-116890000D01*
G75*
G02*
X168120000Y-117030000I0J-140000D01*
G01*
G37*
G36*
G01*
X169080000Y-117030000D02*
X169080000Y-117370000D01*
G75*
G02*
X168940000Y-117510000I-140000J0D01*
G01*
X168660000Y-117510000D01*
G75*
G02*
X168520000Y-117370000I0J140000D01*
G01*
X168520000Y-117030000D01*
G75*
G02*
X168660000Y-116890000I140000J0D01*
G01*
X168940000Y-116890000D01*
G75*
G02*
X169080000Y-117030000I0J-140000D01*
G01*
G37*
G36*
G01*
X162430000Y-112320000D02*
X162770000Y-112320000D01*
G75*
G02*
X162910000Y-112460000I0J-140000D01*
G01*
X162910000Y-112740000D01*
G75*
G02*
X162770000Y-112880000I-140000J0D01*
G01*
X162430000Y-112880000D01*
G75*
G02*
X162290000Y-112740000I0J140000D01*
G01*
X162290000Y-112460000D01*
G75*
G02*
X162430000Y-112320000I140000J0D01*
G01*
G37*
G36*
G01*
X162430000Y-113280000D02*
X162770000Y-113280000D01*
G75*
G02*
X162910000Y-113420000I0J-140000D01*
G01*
X162910000Y-113700000D01*
G75*
G02*
X162770000Y-113840000I-140000J0D01*
G01*
X162430000Y-113840000D01*
G75*
G02*
X162290000Y-113700000I0J140000D01*
G01*
X162290000Y-113420000D01*
G75*
G02*
X162430000Y-113280000I140000J0D01*
G01*
G37*
G36*
G01*
X135430000Y-112320000D02*
X135770000Y-112320000D01*
G75*
G02*
X135910000Y-112460000I0J-140000D01*
G01*
X135910000Y-112740000D01*
G75*
G02*
X135770000Y-112880000I-140000J0D01*
G01*
X135430000Y-112880000D01*
G75*
G02*
X135290000Y-112740000I0J140000D01*
G01*
X135290000Y-112460000D01*
G75*
G02*
X135430000Y-112320000I140000J0D01*
G01*
G37*
G36*
G01*
X135430000Y-113280000D02*
X135770000Y-113280000D01*
G75*
G02*
X135910000Y-113420000I0J-140000D01*
G01*
X135910000Y-113700000D01*
G75*
G02*
X135770000Y-113840000I-140000J0D01*
G01*
X135430000Y-113840000D01*
G75*
G02*
X135290000Y-113700000I0J140000D01*
G01*
X135290000Y-113420000D01*
G75*
G02*
X135430000Y-113280000I140000J0D01*
G01*
G37*
G36*
G01*
X131930000Y-119170000D02*
X131930000Y-118830000D01*
G75*
G02*
X132070000Y-118690000I140000J0D01*
G01*
X132350000Y-118690000D01*
G75*
G02*
X132490000Y-118830000I0J-140000D01*
G01*
X132490000Y-119170000D01*
G75*
G02*
X132350000Y-119310000I-140000J0D01*
G01*
X132070000Y-119310000D01*
G75*
G02*
X131930000Y-119170000I0J140000D01*
G01*
G37*
G36*
G01*
X130970000Y-119170000D02*
X130970000Y-118830000D01*
G75*
G02*
X131110000Y-118690000I140000J0D01*
G01*
X131390000Y-118690000D01*
G75*
G02*
X131530000Y-118830000I0J-140000D01*
G01*
X131530000Y-119170000D01*
G75*
G02*
X131390000Y-119310000I-140000J0D01*
G01*
X131110000Y-119310000D01*
G75*
G02*
X130970000Y-119170000I0J140000D01*
G01*
G37*
G36*
G01*
X164570000Y-123580000D02*
X164230000Y-123580000D01*
G75*
G02*
X164090000Y-123440000I0J140000D01*
G01*
X164090000Y-123160000D01*
G75*
G02*
X164230000Y-123020000I140000J0D01*
G01*
X164570000Y-123020000D01*
G75*
G02*
X164710000Y-123160000I0J-140000D01*
G01*
X164710000Y-123440000D01*
G75*
G02*
X164570000Y-123580000I-140000J0D01*
G01*
G37*
G36*
G01*
X164570000Y-122620000D02*
X164230000Y-122620000D01*
G75*
G02*
X164090000Y-122480000I0J140000D01*
G01*
X164090000Y-122200000D01*
G75*
G02*
X164230000Y-122060000I140000J0D01*
G01*
X164570000Y-122060000D01*
G75*
G02*
X164710000Y-122200000I0J-140000D01*
G01*
X164710000Y-122480000D01*
G75*
G02*
X164570000Y-122620000I-140000J0D01*
G01*
G37*
G36*
G01*
X137670000Y-123530000D02*
X137330000Y-123530000D01*
G75*
G02*
X137190000Y-123390000I0J140000D01*
G01*
X137190000Y-123110000D01*
G75*
G02*
X137330000Y-122970000I140000J0D01*
G01*
X137670000Y-122970000D01*
G75*
G02*
X137810000Y-123110000I0J-140000D01*
G01*
X137810000Y-123390000D01*
G75*
G02*
X137670000Y-123530000I-140000J0D01*
G01*
G37*
G36*
G01*
X137670000Y-122570000D02*
X137330000Y-122570000D01*
G75*
G02*
X137190000Y-122430000I0J140000D01*
G01*
X137190000Y-122150000D01*
G75*
G02*
X137330000Y-122010000I140000J0D01*
G01*
X137670000Y-122010000D01*
G75*
G02*
X137810000Y-122150000I0J-140000D01*
G01*
X137810000Y-122430000D01*
G75*
G02*
X137670000Y-122570000I-140000J0D01*
G01*
G37*
G36*
G01*
X142280000Y-116830000D02*
X142280000Y-117170000D01*
G75*
G02*
X142140000Y-117310000I-140000J0D01*
G01*
X141860000Y-117310000D01*
G75*
G02*
X141720000Y-117170000I0J140000D01*
G01*
X141720000Y-116830000D01*
G75*
G02*
X141860000Y-116690000I140000J0D01*
G01*
X142140000Y-116690000D01*
G75*
G02*
X142280000Y-116830000I0J-140000D01*
G01*
G37*
G36*
G01*
X141320000Y-116830000D02*
X141320000Y-117170000D01*
G75*
G02*
X141180000Y-117310000I-140000J0D01*
G01*
X140900000Y-117310000D01*
G75*
G02*
X140760000Y-117170000I0J140000D01*
G01*
X140760000Y-116830000D01*
G75*
G02*
X140900000Y-116690000I140000J0D01*
G01*
X141180000Y-116690000D01*
G75*
G02*
X141320000Y-116830000I0J-140000D01*
G01*
G37*
D10*
X137415000Y-111550000D03*
X137415000Y-110450000D03*
X135585000Y-110450000D03*
X135585000Y-111550000D03*
X162585000Y-111550000D03*
X162585000Y-110450000D03*
X164415000Y-110450000D03*
X164415000Y-111550000D03*
D11*
G36*
X139969114Y-112841906D02*
G01*
X140464089Y-112346931D01*
X140959064Y-112841906D01*
X140464089Y-113336881D01*
X139969114Y-112841906D01*
G37*
G36*
X140746931Y-112064089D02*
G01*
X141241906Y-111569114D01*
X141736881Y-112064089D01*
X141241906Y-112559064D01*
X140746931Y-112064089D01*
G37*
G36*
X142040936Y-113358094D02*
G01*
X142535911Y-112863119D01*
X143030886Y-113358094D01*
X142535911Y-113853069D01*
X142040936Y-113358094D01*
G37*
G36*
X141263119Y-114135911D02*
G01*
X141758094Y-113640936D01*
X142253069Y-114135911D01*
X141758094Y-114630886D01*
X141263119Y-114135911D01*
G37*
G36*
X168263119Y-114035911D02*
G01*
X168758094Y-113540936D01*
X169253069Y-114035911D01*
X168758094Y-114530886D01*
X168263119Y-114035911D01*
G37*
G36*
X169040936Y-113258094D02*
G01*
X169535911Y-112763119D01*
X170030886Y-113258094D01*
X169535911Y-113753069D01*
X169040936Y-113258094D01*
G37*
G36*
X167746931Y-111964089D02*
G01*
X168241906Y-111469114D01*
X168736881Y-111964089D01*
X168241906Y-112459064D01*
X167746931Y-111964089D01*
G37*
G36*
X166969114Y-112741906D02*
G01*
X167464089Y-112246931D01*
X167959064Y-112741906D01*
X167464089Y-113236881D01*
X166969114Y-112741906D01*
G37*
D10*
X143000000Y-118830000D03*
X144100000Y-118830000D03*
X144100000Y-117000000D03*
X143000000Y-117000000D03*
X169950000Y-117185000D03*
X171050000Y-117185000D03*
X171050000Y-119015000D03*
X169950000Y-119015000D03*
D11*
G36*
X141694005Y-121411020D02*
G01*
X142188980Y-121905995D01*
X141694005Y-122400970D01*
X141199030Y-121905995D01*
X141694005Y-121411020D01*
G37*
G36*
X142471822Y-122188837D02*
G01*
X142966797Y-122683812D01*
X142471822Y-123178787D01*
X141976847Y-122683812D01*
X142471822Y-122188837D01*
G37*
G36*
X141177817Y-123482842D02*
G01*
X141672792Y-123977817D01*
X141177817Y-124472792D01*
X140682842Y-123977817D01*
X141177817Y-123482842D01*
G37*
G36*
X140400000Y-122705025D02*
G01*
X140894975Y-123200000D01*
X140400000Y-123694975D01*
X139905025Y-123200000D01*
X140400000Y-122705025D01*
G37*
G36*
X167428178Y-122721213D02*
G01*
X167923153Y-123216188D01*
X167428178Y-123711163D01*
X166933203Y-123216188D01*
X167428178Y-122721213D01*
G37*
G36*
X168205995Y-123499030D02*
G01*
X168700970Y-123994005D01*
X168205995Y-124488980D01*
X167711020Y-123994005D01*
X168205995Y-123499030D01*
G37*
G36*
X169500000Y-122205025D02*
G01*
X169994975Y-122700000D01*
X169500000Y-123194975D01*
X169005025Y-122700000D01*
X169500000Y-122205025D01*
G37*
G36*
X168722183Y-121427208D02*
G01*
X169217158Y-121922183D01*
X168722183Y-122417158D01*
X168227208Y-121922183D01*
X168722183Y-121427208D01*
G37*
D10*
X135670000Y-124400000D03*
X135670000Y-125500000D03*
X137500000Y-125500000D03*
X137500000Y-124400000D03*
X164415000Y-124450000D03*
X164415000Y-125550000D03*
X162585000Y-125550000D03*
X162585000Y-124450000D03*
D11*
G36*
X133330886Y-123408094D02*
G01*
X132835911Y-123903069D01*
X132340936Y-123408094D01*
X132835911Y-122913119D01*
X133330886Y-123408094D01*
G37*
G36*
X132553069Y-124185911D02*
G01*
X132058094Y-124680886D01*
X131563119Y-124185911D01*
X132058094Y-123690936D01*
X132553069Y-124185911D01*
G37*
G36*
X131259064Y-122891906D02*
G01*
X130764089Y-123386881D01*
X130269114Y-122891906D01*
X130764089Y-122396931D01*
X131259064Y-122891906D01*
G37*
G36*
X132036881Y-122114089D02*
G01*
X131541906Y-122609064D01*
X131046931Y-122114089D01*
X131541906Y-121619114D01*
X132036881Y-122114089D01*
G37*
G36*
X158836881Y-121864089D02*
G01*
X158341906Y-122359064D01*
X157846931Y-121864089D01*
X158341906Y-121369114D01*
X158836881Y-121864089D01*
G37*
G36*
X158059064Y-122641906D02*
G01*
X157564089Y-123136881D01*
X157069114Y-122641906D01*
X157564089Y-122146931D01*
X158059064Y-122641906D01*
G37*
G36*
X159353069Y-123935911D02*
G01*
X158858094Y-124430886D01*
X158363119Y-123935911D01*
X158858094Y-123440936D01*
X159353069Y-123935911D01*
G37*
G36*
X160130886Y-123158094D02*
G01*
X159635911Y-123653069D01*
X159140936Y-123158094D01*
X159635911Y-122663119D01*
X160130886Y-123158094D01*
G37*
D10*
X130100000Y-117170000D03*
X129000000Y-117170000D03*
X129000000Y-119000000D03*
X130100000Y-119000000D03*
X157050000Y-118915000D03*
X155950000Y-118915000D03*
X155950000Y-117085000D03*
X157050000Y-117085000D03*
D11*
G36*
X132635911Y-113336881D02*
G01*
X132140936Y-112841906D01*
X132635911Y-112346931D01*
X133130886Y-112841906D01*
X132635911Y-113336881D01*
G37*
G36*
X131858094Y-112559064D02*
G01*
X131363119Y-112064089D01*
X131858094Y-111569114D01*
X132353069Y-112064089D01*
X131858094Y-112559064D01*
G37*
G36*
X130564089Y-113853069D02*
G01*
X130069114Y-113358094D01*
X130564089Y-112863119D01*
X131059064Y-113358094D01*
X130564089Y-113853069D01*
G37*
G36*
X131341906Y-114630886D02*
G01*
X130846931Y-114135911D01*
X131341906Y-113640936D01*
X131836881Y-114135911D01*
X131341906Y-114630886D01*
G37*
G36*
X158341906Y-114630886D02*
G01*
X157846931Y-114135911D01*
X158341906Y-113640936D01*
X158836881Y-114135911D01*
X158341906Y-114630886D01*
G37*
G36*
X157564089Y-113853069D02*
G01*
X157069114Y-113358094D01*
X157564089Y-112863119D01*
X158059064Y-113358094D01*
X157564089Y-113853069D01*
G37*
G36*
X158858094Y-112559064D02*
G01*
X158363119Y-112064089D01*
X158858094Y-111569114D01*
X159353069Y-112064089D01*
X158858094Y-112559064D01*
G37*
G36*
X159635911Y-113336881D02*
G01*
X159140936Y-112841906D01*
X159635911Y-112346931D01*
X160130886Y-112841906D01*
X159635911Y-113336881D01*
G37*
M02*
