G04 #@! TF.GenerationSoftware,KiCad,Pcbnew,5.1.10*
G04 #@! TF.CreationDate,2021-09-05T11:20:00+02:00*
G04 #@! TF.ProjectId,badge,62616467-652e-46b6-9963-61645f706362,rev?*
G04 #@! TF.SameCoordinates,Original*
G04 #@! TF.FileFunction,Soldermask,Bot*
G04 #@! TF.FilePolarity,Negative*
%FSLAX46Y46*%
G04 Gerber Fmt 4.6, Leading zero omitted, Abs format (unit mm)*
G04 Created by KiCad (PCBNEW 5.1.10) date 2021-09-05 11:20:00*
%MOMM*%
%LPD*%
G01*
G04 APERTURE LIST*
%ADD10C,3.200000*%
%ADD11C,2.000000*%
%ADD12R,0.400000X1.350000*%
%ADD13R,1.350000X1.000000*%
%ADD14R,1.900000X1.900000*%
%ADD15C,0.600000*%
%ADD16R,1.700000X0.650000*%
G04 APERTURE END LIST*
D10*
X150000000Y-58500000D03*
G36*
G01*
X144380000Y-130670000D02*
X144380000Y-130330000D01*
G75*
G02*
X144520000Y-130190000I140000J0D01*
G01*
X144800000Y-130190000D01*
G75*
G02*
X144940000Y-130330000I0J-140000D01*
G01*
X144940000Y-130670000D01*
G75*
G02*
X144800000Y-130810000I-140000J0D01*
G01*
X144520000Y-130810000D01*
G75*
G02*
X144380000Y-130670000I0J140000D01*
G01*
G37*
G36*
G01*
X143420000Y-130670000D02*
X143420000Y-130330000D01*
G75*
G02*
X143560000Y-130190000I140000J0D01*
G01*
X143840000Y-130190000D01*
G75*
G02*
X143980000Y-130330000I0J-140000D01*
G01*
X143980000Y-130670000D01*
G75*
G02*
X143840000Y-130810000I-140000J0D01*
G01*
X143560000Y-130810000D01*
G75*
G02*
X143420000Y-130670000I0J140000D01*
G01*
G37*
D11*
X189000000Y-104100000D03*
X187000000Y-100100000D03*
X189000000Y-96100000D03*
X192000000Y-96100000D03*
X190000000Y-100100000D03*
X192000000Y-104100000D03*
D12*
X151600000Y-140800000D03*
X150950000Y-140800000D03*
X150300000Y-140800000D03*
X149650000Y-140800000D03*
X149000000Y-140800000D03*
D13*
X153500000Y-141200000D03*
X147100000Y-141200000D03*
D14*
X146100000Y-143450000D03*
X154500000Y-143400000D03*
D15*
X152300000Y-141300000D03*
X148300000Y-141300000D03*
D14*
X151400000Y-143400000D03*
X149200000Y-143400000D03*
G36*
G01*
X134280000Y-108815000D02*
X134280000Y-109185000D01*
G75*
G02*
X134145000Y-109320000I-135000J0D01*
G01*
X133875000Y-109320000D01*
G75*
G02*
X133740000Y-109185000I0J135000D01*
G01*
X133740000Y-108815000D01*
G75*
G02*
X133875000Y-108680000I135000J0D01*
G01*
X134145000Y-108680000D01*
G75*
G02*
X134280000Y-108815000I0J-135000D01*
G01*
G37*
G36*
G01*
X133260000Y-108815000D02*
X133260000Y-109185000D01*
G75*
G02*
X133125000Y-109320000I-135000J0D01*
G01*
X132855000Y-109320000D01*
G75*
G02*
X132720000Y-109185000I0J135000D01*
G01*
X132720000Y-108815000D01*
G75*
G02*
X132855000Y-108680000I135000J0D01*
G01*
X133125000Y-108680000D01*
G75*
G02*
X133260000Y-108815000I0J-135000D01*
G01*
G37*
D16*
X146450000Y-134305000D03*
X146450000Y-133035000D03*
X146450000Y-131765000D03*
X146450000Y-130495000D03*
X153750000Y-130495000D03*
X153750000Y-131765000D03*
X153750000Y-133035000D03*
X153750000Y-134305000D03*
M02*
