G04 #@! TF.GenerationSoftware,KiCad,Pcbnew,5.1.10*
G04 #@! TF.CreationDate,2021-09-05T11:20:00+02:00*
G04 #@! TF.ProjectId,badge,62616467-652e-46b6-9963-61645f706362,rev?*
G04 #@! TF.SameCoordinates,Original*
G04 #@! TF.FileFunction,Soldermask,Top*
G04 #@! TF.FilePolarity,Negative*
%FSLAX46Y46*%
G04 Gerber Fmt 4.6, Leading zero omitted, Abs format (unit mm)*
G04 Created by KiCad (PCBNEW 5.1.10) date 2021-09-05 11:20:00*
%MOMM*%
%LPD*%
G01*
G04 APERTURE LIST*
%ADD10C,0.010000*%
%ADD11C,3.200000*%
%ADD12R,0.700000X0.700000*%
%ADD13C,0.100000*%
%ADD14C,0.600000*%
G04 APERTURE END LIST*
D10*
G36*
X149858333Y-61285780D02*
G01*
X169084504Y-61291084D01*
X171000952Y-64619588D01*
X172917400Y-67948093D01*
X172937633Y-82516005D01*
X172938729Y-83325521D01*
X172939766Y-84133965D01*
X172940745Y-84939899D01*
X172941666Y-85741885D01*
X172942527Y-86538484D01*
X172943328Y-87328259D01*
X172944068Y-88109771D01*
X172944748Y-88881583D01*
X172945367Y-89642256D01*
X172945924Y-90390352D01*
X172946418Y-91124433D01*
X172946850Y-91843060D01*
X172947219Y-92544797D01*
X172947524Y-93228204D01*
X172947764Y-93891843D01*
X172947940Y-94534277D01*
X172948051Y-95154066D01*
X172948097Y-95749774D01*
X172948076Y-96319962D01*
X172947988Y-96863191D01*
X172947834Y-97378024D01*
X172947612Y-97863023D01*
X172947322Y-98316749D01*
X172946964Y-98737765D01*
X172946537Y-99124631D01*
X172946040Y-99475911D01*
X172945473Y-99790165D01*
X172944836Y-100065957D01*
X172944128Y-100301847D01*
X172943597Y-100440789D01*
X172929328Y-103797662D01*
X175682985Y-103812950D01*
X178436642Y-103828239D01*
X178527113Y-103765881D01*
X178596989Y-103713412D01*
X178665518Y-103652046D01*
X178735619Y-103577944D01*
X178810213Y-103487271D01*
X178892219Y-103376189D01*
X178984558Y-103240859D01*
X179090150Y-103077446D01*
X179211915Y-102882113D01*
X179262658Y-102799333D01*
X179323549Y-102702063D01*
X179384755Y-102608437D01*
X179438699Y-102529821D01*
X179474325Y-102481856D01*
X179525225Y-102412263D01*
X179581737Y-102325930D01*
X179623000Y-102256572D01*
X179698215Y-102144293D01*
X179800905Y-102021912D01*
X179921271Y-101899393D01*
X180049511Y-101786702D01*
X180175826Y-101693801D01*
X180177770Y-101692535D01*
X180430379Y-101552487D01*
X180710710Y-101441496D01*
X181015001Y-101360320D01*
X181339490Y-101309714D01*
X181680415Y-101290436D01*
X182034015Y-101303242D01*
X182088917Y-101308072D01*
X182202053Y-101318141D01*
X182305020Y-101326105D01*
X182387999Y-101331288D01*
X182441174Y-101333016D01*
X182448750Y-101332824D01*
X182636862Y-101323248D01*
X182788819Y-101316433D01*
X182910709Y-101312414D01*
X183008623Y-101311223D01*
X183088649Y-101312891D01*
X183156878Y-101317452D01*
X183219398Y-101324938D01*
X183282300Y-101335382D01*
X183292789Y-101337326D01*
X183583330Y-101411601D01*
X183857542Y-101521206D01*
X184111761Y-101663545D01*
X184342325Y-101836019D01*
X184545571Y-102036032D01*
X184717835Y-102260986D01*
X184807055Y-102411059D01*
X184882485Y-102566424D01*
X184935365Y-102712899D01*
X184969467Y-102864980D01*
X184988563Y-103037159D01*
X184993341Y-103127000D01*
X185003801Y-103391584D01*
X184924343Y-103603250D01*
X184807042Y-103893249D01*
X184665113Y-104205772D01*
X184502784Y-104532367D01*
X184324281Y-104864583D01*
X184133833Y-105193967D01*
X184103855Y-105243667D01*
X184063243Y-105308993D01*
X184002073Y-105405181D01*
X183923203Y-105527830D01*
X183829496Y-105672537D01*
X183723811Y-105834899D01*
X183609011Y-106010515D01*
X183487954Y-106194982D01*
X183363502Y-106383898D01*
X183326725Y-106439584D01*
X183186723Y-106652399D01*
X183048716Y-106864018D01*
X182914644Y-107071339D01*
X182786447Y-107271258D01*
X182666068Y-107460673D01*
X182555446Y-107636484D01*
X182456524Y-107795586D01*
X182371242Y-107934878D01*
X182301541Y-108051257D01*
X182249362Y-108141622D01*
X182216646Y-108202870D01*
X182205334Y-108231880D01*
X182184571Y-108233971D01*
X182123901Y-108235990D01*
X182025748Y-108237923D01*
X181892539Y-108239755D01*
X181726699Y-108241472D01*
X181530653Y-108243058D01*
X181306826Y-108244500D01*
X181057645Y-108245783D01*
X180785535Y-108246891D01*
X180492921Y-108247811D01*
X180182230Y-108248527D01*
X179855885Y-108249026D01*
X179516313Y-108249292D01*
X179316084Y-108249334D01*
X176426834Y-108249334D01*
X176426105Y-108476875D01*
X176425778Y-108511284D01*
X176424893Y-108586816D01*
X176423466Y-108702267D01*
X176421515Y-108856429D01*
X176419053Y-109048097D01*
X176416099Y-109276066D01*
X176412667Y-109539129D01*
X176408774Y-109836081D01*
X176404436Y-110165715D01*
X176399669Y-110526827D01*
X176394488Y-110918209D01*
X176388911Y-111338658D01*
X176382953Y-111786965D01*
X176376630Y-112261926D01*
X176369959Y-112762335D01*
X176362954Y-113286986D01*
X176355633Y-113834674D01*
X176348012Y-114404191D01*
X176340106Y-114994333D01*
X176331931Y-115603894D01*
X176323504Y-116231668D01*
X176314841Y-116876449D01*
X176305958Y-117537031D01*
X176296870Y-118212208D01*
X176287594Y-118900775D01*
X176278146Y-119601525D01*
X176268543Y-120313254D01*
X176259541Y-120979794D01*
X176093707Y-133255170D01*
X176032729Y-133307684D01*
X176010713Y-133326602D01*
X175958158Y-133371737D01*
X175876646Y-133441733D01*
X175767757Y-133535232D01*
X175633074Y-133650876D01*
X175474176Y-133787308D01*
X175292646Y-133943170D01*
X175090065Y-134117104D01*
X174868013Y-134307753D01*
X174628073Y-134513758D01*
X174371824Y-134733764D01*
X174100850Y-134966411D01*
X173816730Y-135210343D01*
X173521046Y-135464201D01*
X173215379Y-135726628D01*
X172901310Y-135996267D01*
X172844820Y-136044766D01*
X169717891Y-138729334D01*
X150461070Y-138728970D01*
X131204250Y-138728606D01*
X124080386Y-132559250D01*
X124108550Y-108249334D01*
X116573585Y-108249334D01*
X115952483Y-107270375D01*
X115688321Y-106854355D01*
X115441985Y-106467107D01*
X115213873Y-106109250D01*
X115004383Y-105781400D01*
X114813914Y-105484174D01*
X114642863Y-105218189D01*
X114491628Y-104984062D01*
X114360607Y-104782410D01*
X114250200Y-104613849D01*
X114160802Y-104478998D01*
X114092814Y-104378471D01*
X114046632Y-104312887D01*
X114030463Y-104291677D01*
X113952534Y-104180225D01*
X113873805Y-104040519D01*
X113800785Y-103886005D01*
X113739984Y-103730127D01*
X113707379Y-103624417D01*
X113676968Y-103466293D01*
X113660614Y-103281957D01*
X113658445Y-103104848D01*
X115252129Y-103104848D01*
X115262568Y-103145051D01*
X115277606Y-103173717D01*
X115313811Y-103235476D01*
X115369570Y-103327737D01*
X115443268Y-103447911D01*
X115533293Y-103593409D01*
X115638032Y-103761641D01*
X115755869Y-103950019D01*
X115885194Y-104155951D01*
X116024390Y-104376850D01*
X116171847Y-104610125D01*
X116325949Y-104853188D01*
X116375639Y-104931412D01*
X117461849Y-106640574D01*
X126925445Y-106651250D01*
X125718539Y-107995334D01*
X125704439Y-116742459D01*
X125703424Y-117382510D01*
X125702434Y-118026832D01*
X125701471Y-118673273D01*
X125700539Y-119319680D01*
X125699639Y-119963900D01*
X125698773Y-120603781D01*
X125697944Y-121237170D01*
X125697155Y-121861915D01*
X125696407Y-122475863D01*
X125695703Y-123076862D01*
X125695045Y-123662758D01*
X125694435Y-124231399D01*
X125693877Y-124780633D01*
X125693372Y-125308307D01*
X125692922Y-125812269D01*
X125692530Y-126290365D01*
X125692198Y-126740444D01*
X125691929Y-127160352D01*
X125691724Y-127547938D01*
X125691587Y-127901047D01*
X125691519Y-128217529D01*
X125691523Y-128495230D01*
X125691565Y-128654000D01*
X125692791Y-131818417D01*
X131811589Y-137120667D01*
X169118961Y-137120667D01*
X171809814Y-134810567D01*
X174500667Y-132500466D01*
X174500708Y-132360525D01*
X174500991Y-132331165D01*
X174501824Y-132260691D01*
X174503192Y-132150316D01*
X174505078Y-132001255D01*
X174507467Y-131814723D01*
X174510342Y-131591935D01*
X174513687Y-131334104D01*
X174517487Y-131042446D01*
X174521724Y-130718175D01*
X174526384Y-130362506D01*
X174531450Y-129976653D01*
X174536906Y-129561832D01*
X174542737Y-129119255D01*
X174548925Y-128650139D01*
X174555456Y-128155697D01*
X174562312Y-127637145D01*
X174569479Y-127095696D01*
X174576939Y-126532566D01*
X174584678Y-125948969D01*
X174592678Y-125346120D01*
X174600925Y-124725232D01*
X174609401Y-124087522D01*
X174618091Y-123434202D01*
X174626979Y-122766489D01*
X174636049Y-122085596D01*
X174645284Y-121392739D01*
X174654669Y-120689131D01*
X174659389Y-120335500D01*
X174668846Y-119626574D01*
X174678161Y-118927628D01*
X174687317Y-118239885D01*
X174696298Y-117564565D01*
X174705088Y-116902890D01*
X174713671Y-116256082D01*
X174722031Y-115625361D01*
X174730152Y-115011950D01*
X174738017Y-114417069D01*
X174745612Y-113841941D01*
X174752920Y-113287786D01*
X174759925Y-112755826D01*
X174766610Y-112247283D01*
X174772960Y-111763377D01*
X174778959Y-111305331D01*
X174784591Y-110874365D01*
X174789840Y-110471702D01*
X174794690Y-110098562D01*
X174799124Y-109756167D01*
X174803127Y-109445739D01*
X174806682Y-109168498D01*
X174809775Y-108925667D01*
X174812388Y-108718466D01*
X174814505Y-108548118D01*
X174816111Y-108415843D01*
X174817190Y-108322863D01*
X174817725Y-108270400D01*
X174817785Y-108259917D01*
X174817541Y-108069417D01*
X174019742Y-107360334D01*
X173221943Y-106651250D01*
X181300713Y-106630084D01*
X182324517Y-105010834D01*
X182475436Y-104771774D01*
X182620158Y-104541819D01*
X182757035Y-104323629D01*
X182884418Y-104119865D01*
X183000657Y-103933189D01*
X183104103Y-103766261D01*
X183193108Y-103621742D01*
X183266023Y-103502293D01*
X183321198Y-103410575D01*
X183356985Y-103349249D01*
X183371734Y-103320976D01*
X183371761Y-103320897D01*
X183384661Y-103219999D01*
X183360811Y-103122729D01*
X183305363Y-103038742D01*
X183223470Y-102977693D01*
X183179314Y-102960262D01*
X183076558Y-102944141D01*
X182987224Y-102964770D01*
X182902295Y-103024544D01*
X182889077Y-103037335D01*
X182842727Y-103080723D01*
X182814731Y-103096259D01*
X182795648Y-103088021D01*
X182789412Y-103080391D01*
X182739464Y-103033787D01*
X182668668Y-102991467D01*
X182596011Y-102963486D01*
X182557782Y-102957746D01*
X182507926Y-102965058D01*
X182448539Y-102983277D01*
X182394008Y-103006670D01*
X182358721Y-103029503D01*
X182352739Y-103039454D01*
X182340043Y-103063134D01*
X182309638Y-103104543D01*
X182301555Y-103114592D01*
X182251132Y-103176267D01*
X182219982Y-103101714D01*
X182158418Y-103002576D01*
X182070401Y-102936481D01*
X182010206Y-102914087D01*
X181916421Y-102909246D01*
X181821236Y-102939033D01*
X181737103Y-102998073D01*
X181693415Y-103050857D01*
X181660952Y-103097385D01*
X181637773Y-103124187D01*
X181633355Y-103126738D01*
X181617292Y-103110172D01*
X181591094Y-103068667D01*
X181583282Y-103054559D01*
X181524393Y-102981838D01*
X181443101Y-102928230D01*
X181353494Y-102901071D01*
X181290769Y-102902193D01*
X181222193Y-102924291D01*
X181162212Y-102957817D01*
X181161145Y-102958647D01*
X181140112Y-102982637D01*
X181096731Y-103038276D01*
X181033124Y-103122666D01*
X180951409Y-103232908D01*
X180853708Y-103366104D01*
X180742139Y-103519356D01*
X180618823Y-103689766D01*
X180485880Y-103874436D01*
X180345429Y-104070468D01*
X180248040Y-104206924D01*
X179388584Y-105413000D01*
X171823084Y-105412130D01*
X171353878Y-104992900D01*
X171339775Y-95990159D01*
X171338679Y-95269338D01*
X171337590Y-94511414D01*
X171336511Y-93720320D01*
X171335446Y-92899989D01*
X171334399Y-92054358D01*
X171333373Y-91187358D01*
X171332373Y-90302926D01*
X171331401Y-89404994D01*
X171330462Y-88497497D01*
X171329559Y-87584369D01*
X171328696Y-86669545D01*
X171327876Y-85756958D01*
X171327104Y-84850542D01*
X171326383Y-83954232D01*
X171325717Y-83071961D01*
X171325109Y-82207665D01*
X171324563Y-81365277D01*
X171324083Y-80548731D01*
X171323672Y-79761961D01*
X171323334Y-79008902D01*
X171323074Y-78293487D01*
X171323033Y-78160917D01*
X171322818Y-77547134D01*
X171322544Y-76942003D01*
X171322214Y-76347015D01*
X171321830Y-75763662D01*
X171321394Y-75193436D01*
X171320910Y-74637828D01*
X171320380Y-74098330D01*
X171319806Y-73576434D01*
X171319192Y-73073631D01*
X171318538Y-72591412D01*
X171317849Y-72131270D01*
X171317126Y-71694695D01*
X171316372Y-71283180D01*
X171315590Y-70898216D01*
X171314782Y-70541295D01*
X171313950Y-70213908D01*
X171313098Y-69917547D01*
X171312228Y-69653703D01*
X171311342Y-69423869D01*
X171310443Y-69229535D01*
X171309533Y-69072194D01*
X171308616Y-68953337D01*
X171307693Y-68874455D01*
X171307155Y-68847584D01*
X171293917Y-68360750D01*
X168143513Y-62889142D01*
X131586309Y-62899750D01*
X130015138Y-65799584D01*
X128443967Y-68699417D01*
X128442984Y-86830259D01*
X128442000Y-104961102D01*
X128239825Y-105187051D01*
X128037649Y-105413000D01*
X119390883Y-105413000D01*
X118517012Y-104123003D01*
X118373941Y-103912408D01*
X118236651Y-103711486D01*
X118107138Y-103523091D01*
X117987403Y-103350075D01*
X117879442Y-103195292D01*
X117785256Y-103061594D01*
X117706841Y-102951836D01*
X117646198Y-102868870D01*
X117605324Y-102815550D01*
X117586862Y-102795106D01*
X117519826Y-102767747D01*
X117433690Y-102756907D01*
X117431594Y-102756894D01*
X117329077Y-102772971D01*
X117245117Y-102823998D01*
X117174800Y-102913104D01*
X117168154Y-102924538D01*
X117123225Y-103003845D01*
X117054214Y-102907748D01*
X116972831Y-102819838D01*
X116881953Y-102765073D01*
X116788158Y-102745929D01*
X116698026Y-102764884D01*
X116687817Y-102769812D01*
X116613430Y-102820133D01*
X116552325Y-102882964D01*
X116523053Y-102932239D01*
X116510924Y-102958605D01*
X116496402Y-102963694D01*
X116470638Y-102944331D01*
X116424784Y-102897342D01*
X116424275Y-102896807D01*
X116342731Y-102827127D01*
X116261361Y-102794475D01*
X116169625Y-102794928D01*
X116156758Y-102797144D01*
X116057190Y-102836473D01*
X115977315Y-102910739D01*
X115934122Y-102985938D01*
X115897978Y-103071044D01*
X115814697Y-102951076D01*
X115732246Y-102852447D01*
X115646780Y-102792644D01*
X115552917Y-102768225D01*
X115527135Y-102767246D01*
X115430526Y-102786633D01*
X115348637Y-102838776D01*
X115287551Y-102914984D01*
X115253354Y-103006571D01*
X115252129Y-103104848D01*
X113658445Y-103104848D01*
X113658202Y-103085091D01*
X113669618Y-102889373D01*
X113694746Y-102708483D01*
X113715853Y-102614644D01*
X113807404Y-102336127D01*
X113926639Y-102087068D01*
X114076029Y-101862916D01*
X114206203Y-101711708D01*
X114403736Y-101531316D01*
X114616483Y-101388508D01*
X114842055Y-101284711D01*
X115001167Y-101237230D01*
X115069361Y-101226219D01*
X115175847Y-101215779D01*
X115316585Y-101206048D01*
X115487534Y-101197168D01*
X115684656Y-101189278D01*
X115903911Y-101182519D01*
X116141259Y-101177031D01*
X116392660Y-101172955D01*
X116654075Y-101170430D01*
X116921464Y-101169597D01*
X116948500Y-101169612D01*
X117209261Y-101171780D01*
X117433505Y-101178835D01*
X117626921Y-101192370D01*
X117795196Y-101213979D01*
X117944020Y-101245256D01*
X118079081Y-101287794D01*
X118206066Y-101343186D01*
X118330665Y-101413026D01*
X118458565Y-101498908D01*
X118595455Y-101602425D01*
X118650685Y-101646452D01*
X118753972Y-101734756D01*
X118856709Y-101833602D01*
X118961324Y-101946179D01*
X119070245Y-102075675D01*
X119185897Y-102225278D01*
X119310708Y-102398178D01*
X119447105Y-102597563D01*
X119597516Y-102826622D01*
X119764366Y-103088543D01*
X119839170Y-103207900D01*
X119921054Y-103338220D01*
X119998325Y-103459574D01*
X120067360Y-103566399D01*
X120124535Y-103653131D01*
X120166230Y-103714208D01*
X120187000Y-103742041D01*
X120239917Y-103803698D01*
X123536628Y-103809307D01*
X126833340Y-103814917D01*
X126833337Y-86053072D01*
X126833333Y-68291227D01*
X128732748Y-64785852D01*
X130632162Y-61280477D01*
X149858333Y-61285780D01*
G37*
X149858333Y-61285780D02*
X169084504Y-61291084D01*
X171000952Y-64619588D01*
X172917400Y-67948093D01*
X172937633Y-82516005D01*
X172938729Y-83325521D01*
X172939766Y-84133965D01*
X172940745Y-84939899D01*
X172941666Y-85741885D01*
X172942527Y-86538484D01*
X172943328Y-87328259D01*
X172944068Y-88109771D01*
X172944748Y-88881583D01*
X172945367Y-89642256D01*
X172945924Y-90390352D01*
X172946418Y-91124433D01*
X172946850Y-91843060D01*
X172947219Y-92544797D01*
X172947524Y-93228204D01*
X172947764Y-93891843D01*
X172947940Y-94534277D01*
X172948051Y-95154066D01*
X172948097Y-95749774D01*
X172948076Y-96319962D01*
X172947988Y-96863191D01*
X172947834Y-97378024D01*
X172947612Y-97863023D01*
X172947322Y-98316749D01*
X172946964Y-98737765D01*
X172946537Y-99124631D01*
X172946040Y-99475911D01*
X172945473Y-99790165D01*
X172944836Y-100065957D01*
X172944128Y-100301847D01*
X172943597Y-100440789D01*
X172929328Y-103797662D01*
X175682985Y-103812950D01*
X178436642Y-103828239D01*
X178527113Y-103765881D01*
X178596989Y-103713412D01*
X178665518Y-103652046D01*
X178735619Y-103577944D01*
X178810213Y-103487271D01*
X178892219Y-103376189D01*
X178984558Y-103240859D01*
X179090150Y-103077446D01*
X179211915Y-102882113D01*
X179262658Y-102799333D01*
X179323549Y-102702063D01*
X179384755Y-102608437D01*
X179438699Y-102529821D01*
X179474325Y-102481856D01*
X179525225Y-102412263D01*
X179581737Y-102325930D01*
X179623000Y-102256572D01*
X179698215Y-102144293D01*
X179800905Y-102021912D01*
X179921271Y-101899393D01*
X180049511Y-101786702D01*
X180175826Y-101693801D01*
X180177770Y-101692535D01*
X180430379Y-101552487D01*
X180710710Y-101441496D01*
X181015001Y-101360320D01*
X181339490Y-101309714D01*
X181680415Y-101290436D01*
X182034015Y-101303242D01*
X182088917Y-101308072D01*
X182202053Y-101318141D01*
X182305020Y-101326105D01*
X182387999Y-101331288D01*
X182441174Y-101333016D01*
X182448750Y-101332824D01*
X182636862Y-101323248D01*
X182788819Y-101316433D01*
X182910709Y-101312414D01*
X183008623Y-101311223D01*
X183088649Y-101312891D01*
X183156878Y-101317452D01*
X183219398Y-101324938D01*
X183282300Y-101335382D01*
X183292789Y-101337326D01*
X183583330Y-101411601D01*
X183857542Y-101521206D01*
X184111761Y-101663545D01*
X184342325Y-101836019D01*
X184545571Y-102036032D01*
X184717835Y-102260986D01*
X184807055Y-102411059D01*
X184882485Y-102566424D01*
X184935365Y-102712899D01*
X184969467Y-102864980D01*
X184988563Y-103037159D01*
X184993341Y-103127000D01*
X185003801Y-103391584D01*
X184924343Y-103603250D01*
X184807042Y-103893249D01*
X184665113Y-104205772D01*
X184502784Y-104532367D01*
X184324281Y-104864583D01*
X184133833Y-105193967D01*
X184103855Y-105243667D01*
X184063243Y-105308993D01*
X184002073Y-105405181D01*
X183923203Y-105527830D01*
X183829496Y-105672537D01*
X183723811Y-105834899D01*
X183609011Y-106010515D01*
X183487954Y-106194982D01*
X183363502Y-106383898D01*
X183326725Y-106439584D01*
X183186723Y-106652399D01*
X183048716Y-106864018D01*
X182914644Y-107071339D01*
X182786447Y-107271258D01*
X182666068Y-107460673D01*
X182555446Y-107636484D01*
X182456524Y-107795586D01*
X182371242Y-107934878D01*
X182301541Y-108051257D01*
X182249362Y-108141622D01*
X182216646Y-108202870D01*
X182205334Y-108231880D01*
X182184571Y-108233971D01*
X182123901Y-108235990D01*
X182025748Y-108237923D01*
X181892539Y-108239755D01*
X181726699Y-108241472D01*
X181530653Y-108243058D01*
X181306826Y-108244500D01*
X181057645Y-108245783D01*
X180785535Y-108246891D01*
X180492921Y-108247811D01*
X180182230Y-108248527D01*
X179855885Y-108249026D01*
X179516313Y-108249292D01*
X179316084Y-108249334D01*
X176426834Y-108249334D01*
X176426105Y-108476875D01*
X176425778Y-108511284D01*
X176424893Y-108586816D01*
X176423466Y-108702267D01*
X176421515Y-108856429D01*
X176419053Y-109048097D01*
X176416099Y-109276066D01*
X176412667Y-109539129D01*
X176408774Y-109836081D01*
X176404436Y-110165715D01*
X176399669Y-110526827D01*
X176394488Y-110918209D01*
X176388911Y-111338658D01*
X176382953Y-111786965D01*
X176376630Y-112261926D01*
X176369959Y-112762335D01*
X176362954Y-113286986D01*
X176355633Y-113834674D01*
X176348012Y-114404191D01*
X176340106Y-114994333D01*
X176331931Y-115603894D01*
X176323504Y-116231668D01*
X176314841Y-116876449D01*
X176305958Y-117537031D01*
X176296870Y-118212208D01*
X176287594Y-118900775D01*
X176278146Y-119601525D01*
X176268543Y-120313254D01*
X176259541Y-120979794D01*
X176093707Y-133255170D01*
X176032729Y-133307684D01*
X176010713Y-133326602D01*
X175958158Y-133371737D01*
X175876646Y-133441733D01*
X175767757Y-133535232D01*
X175633074Y-133650876D01*
X175474176Y-133787308D01*
X175292646Y-133943170D01*
X175090065Y-134117104D01*
X174868013Y-134307753D01*
X174628073Y-134513758D01*
X174371824Y-134733764D01*
X174100850Y-134966411D01*
X173816730Y-135210343D01*
X173521046Y-135464201D01*
X173215379Y-135726628D01*
X172901310Y-135996267D01*
X172844820Y-136044766D01*
X169717891Y-138729334D01*
X150461070Y-138728970D01*
X131204250Y-138728606D01*
X124080386Y-132559250D01*
X124108550Y-108249334D01*
X116573585Y-108249334D01*
X115952483Y-107270375D01*
X115688321Y-106854355D01*
X115441985Y-106467107D01*
X115213873Y-106109250D01*
X115004383Y-105781400D01*
X114813914Y-105484174D01*
X114642863Y-105218189D01*
X114491628Y-104984062D01*
X114360607Y-104782410D01*
X114250200Y-104613849D01*
X114160802Y-104478998D01*
X114092814Y-104378471D01*
X114046632Y-104312887D01*
X114030463Y-104291677D01*
X113952534Y-104180225D01*
X113873805Y-104040519D01*
X113800785Y-103886005D01*
X113739984Y-103730127D01*
X113707379Y-103624417D01*
X113676968Y-103466293D01*
X113660614Y-103281957D01*
X113658445Y-103104848D01*
X115252129Y-103104848D01*
X115262568Y-103145051D01*
X115277606Y-103173717D01*
X115313811Y-103235476D01*
X115369570Y-103327737D01*
X115443268Y-103447911D01*
X115533293Y-103593409D01*
X115638032Y-103761641D01*
X115755869Y-103950019D01*
X115885194Y-104155951D01*
X116024390Y-104376850D01*
X116171847Y-104610125D01*
X116325949Y-104853188D01*
X116375639Y-104931412D01*
X117461849Y-106640574D01*
X126925445Y-106651250D01*
X125718539Y-107995334D01*
X125704439Y-116742459D01*
X125703424Y-117382510D01*
X125702434Y-118026832D01*
X125701471Y-118673273D01*
X125700539Y-119319680D01*
X125699639Y-119963900D01*
X125698773Y-120603781D01*
X125697944Y-121237170D01*
X125697155Y-121861915D01*
X125696407Y-122475863D01*
X125695703Y-123076862D01*
X125695045Y-123662758D01*
X125694435Y-124231399D01*
X125693877Y-124780633D01*
X125693372Y-125308307D01*
X125692922Y-125812269D01*
X125692530Y-126290365D01*
X125692198Y-126740444D01*
X125691929Y-127160352D01*
X125691724Y-127547938D01*
X125691587Y-127901047D01*
X125691519Y-128217529D01*
X125691523Y-128495230D01*
X125691565Y-128654000D01*
X125692791Y-131818417D01*
X131811589Y-137120667D01*
X169118961Y-137120667D01*
X171809814Y-134810567D01*
X174500667Y-132500466D01*
X174500708Y-132360525D01*
X174500991Y-132331165D01*
X174501824Y-132260691D01*
X174503192Y-132150316D01*
X174505078Y-132001255D01*
X174507467Y-131814723D01*
X174510342Y-131591935D01*
X174513687Y-131334104D01*
X174517487Y-131042446D01*
X174521724Y-130718175D01*
X174526384Y-130362506D01*
X174531450Y-129976653D01*
X174536906Y-129561832D01*
X174542737Y-129119255D01*
X174548925Y-128650139D01*
X174555456Y-128155697D01*
X174562312Y-127637145D01*
X174569479Y-127095696D01*
X174576939Y-126532566D01*
X174584678Y-125948969D01*
X174592678Y-125346120D01*
X174600925Y-124725232D01*
X174609401Y-124087522D01*
X174618091Y-123434202D01*
X174626979Y-122766489D01*
X174636049Y-122085596D01*
X174645284Y-121392739D01*
X174654669Y-120689131D01*
X174659389Y-120335500D01*
X174668846Y-119626574D01*
X174678161Y-118927628D01*
X174687317Y-118239885D01*
X174696298Y-117564565D01*
X174705088Y-116902890D01*
X174713671Y-116256082D01*
X174722031Y-115625361D01*
X174730152Y-115011950D01*
X174738017Y-114417069D01*
X174745612Y-113841941D01*
X174752920Y-113287786D01*
X174759925Y-112755826D01*
X174766610Y-112247283D01*
X174772960Y-111763377D01*
X174778959Y-111305331D01*
X174784591Y-110874365D01*
X174789840Y-110471702D01*
X174794690Y-110098562D01*
X174799124Y-109756167D01*
X174803127Y-109445739D01*
X174806682Y-109168498D01*
X174809775Y-108925667D01*
X174812388Y-108718466D01*
X174814505Y-108548118D01*
X174816111Y-108415843D01*
X174817190Y-108322863D01*
X174817725Y-108270400D01*
X174817785Y-108259917D01*
X174817541Y-108069417D01*
X174019742Y-107360334D01*
X173221943Y-106651250D01*
X181300713Y-106630084D01*
X182324517Y-105010834D01*
X182475436Y-104771774D01*
X182620158Y-104541819D01*
X182757035Y-104323629D01*
X182884418Y-104119865D01*
X183000657Y-103933189D01*
X183104103Y-103766261D01*
X183193108Y-103621742D01*
X183266023Y-103502293D01*
X183321198Y-103410575D01*
X183356985Y-103349249D01*
X183371734Y-103320976D01*
X183371761Y-103320897D01*
X183384661Y-103219999D01*
X183360811Y-103122729D01*
X183305363Y-103038742D01*
X183223470Y-102977693D01*
X183179314Y-102960262D01*
X183076558Y-102944141D01*
X182987224Y-102964770D01*
X182902295Y-103024544D01*
X182889077Y-103037335D01*
X182842727Y-103080723D01*
X182814731Y-103096259D01*
X182795648Y-103088021D01*
X182789412Y-103080391D01*
X182739464Y-103033787D01*
X182668668Y-102991467D01*
X182596011Y-102963486D01*
X182557782Y-102957746D01*
X182507926Y-102965058D01*
X182448539Y-102983277D01*
X182394008Y-103006670D01*
X182358721Y-103029503D01*
X182352739Y-103039454D01*
X182340043Y-103063134D01*
X182309638Y-103104543D01*
X182301555Y-103114592D01*
X182251132Y-103176267D01*
X182219982Y-103101714D01*
X182158418Y-103002576D01*
X182070401Y-102936481D01*
X182010206Y-102914087D01*
X181916421Y-102909246D01*
X181821236Y-102939033D01*
X181737103Y-102998073D01*
X181693415Y-103050857D01*
X181660952Y-103097385D01*
X181637773Y-103124187D01*
X181633355Y-103126738D01*
X181617292Y-103110172D01*
X181591094Y-103068667D01*
X181583282Y-103054559D01*
X181524393Y-102981838D01*
X181443101Y-102928230D01*
X181353494Y-102901071D01*
X181290769Y-102902193D01*
X181222193Y-102924291D01*
X181162212Y-102957817D01*
X181161145Y-102958647D01*
X181140112Y-102982637D01*
X181096731Y-103038276D01*
X181033124Y-103122666D01*
X180951409Y-103232908D01*
X180853708Y-103366104D01*
X180742139Y-103519356D01*
X180618823Y-103689766D01*
X180485880Y-103874436D01*
X180345429Y-104070468D01*
X180248040Y-104206924D01*
X179388584Y-105413000D01*
X171823084Y-105412130D01*
X171353878Y-104992900D01*
X171339775Y-95990159D01*
X171338679Y-95269338D01*
X171337590Y-94511414D01*
X171336511Y-93720320D01*
X171335446Y-92899989D01*
X171334399Y-92054358D01*
X171333373Y-91187358D01*
X171332373Y-90302926D01*
X171331401Y-89404994D01*
X171330462Y-88497497D01*
X171329559Y-87584369D01*
X171328696Y-86669545D01*
X171327876Y-85756958D01*
X171327104Y-84850542D01*
X171326383Y-83954232D01*
X171325717Y-83071961D01*
X171325109Y-82207665D01*
X171324563Y-81365277D01*
X171324083Y-80548731D01*
X171323672Y-79761961D01*
X171323334Y-79008902D01*
X171323074Y-78293487D01*
X171323033Y-78160917D01*
X171322818Y-77547134D01*
X171322544Y-76942003D01*
X171322214Y-76347015D01*
X171321830Y-75763662D01*
X171321394Y-75193436D01*
X171320910Y-74637828D01*
X171320380Y-74098330D01*
X171319806Y-73576434D01*
X171319192Y-73073631D01*
X171318538Y-72591412D01*
X171317849Y-72131270D01*
X171317126Y-71694695D01*
X171316372Y-71283180D01*
X171315590Y-70898216D01*
X171314782Y-70541295D01*
X171313950Y-70213908D01*
X171313098Y-69917547D01*
X171312228Y-69653703D01*
X171311342Y-69423869D01*
X171310443Y-69229535D01*
X171309533Y-69072194D01*
X171308616Y-68953337D01*
X171307693Y-68874455D01*
X171307155Y-68847584D01*
X171293917Y-68360750D01*
X168143513Y-62889142D01*
X131586309Y-62899750D01*
X130015138Y-65799584D01*
X128443967Y-68699417D01*
X128442984Y-86830259D01*
X128442000Y-104961102D01*
X128239825Y-105187051D01*
X128037649Y-105413000D01*
X119390883Y-105413000D01*
X118517012Y-104123003D01*
X118373941Y-103912408D01*
X118236651Y-103711486D01*
X118107138Y-103523091D01*
X117987403Y-103350075D01*
X117879442Y-103195292D01*
X117785256Y-103061594D01*
X117706841Y-102951836D01*
X117646198Y-102868870D01*
X117605324Y-102815550D01*
X117586862Y-102795106D01*
X117519826Y-102767747D01*
X117433690Y-102756907D01*
X117431594Y-102756894D01*
X117329077Y-102772971D01*
X117245117Y-102823998D01*
X117174800Y-102913104D01*
X117168154Y-102924538D01*
X117123225Y-103003845D01*
X117054214Y-102907748D01*
X116972831Y-102819838D01*
X116881953Y-102765073D01*
X116788158Y-102745929D01*
X116698026Y-102764884D01*
X116687817Y-102769812D01*
X116613430Y-102820133D01*
X116552325Y-102882964D01*
X116523053Y-102932239D01*
X116510924Y-102958605D01*
X116496402Y-102963694D01*
X116470638Y-102944331D01*
X116424784Y-102897342D01*
X116424275Y-102896807D01*
X116342731Y-102827127D01*
X116261361Y-102794475D01*
X116169625Y-102794928D01*
X116156758Y-102797144D01*
X116057190Y-102836473D01*
X115977315Y-102910739D01*
X115934122Y-102985938D01*
X115897978Y-103071044D01*
X115814697Y-102951076D01*
X115732246Y-102852447D01*
X115646780Y-102792644D01*
X115552917Y-102768225D01*
X115527135Y-102767246D01*
X115430526Y-102786633D01*
X115348637Y-102838776D01*
X115287551Y-102914984D01*
X115253354Y-103006571D01*
X115252129Y-103104848D01*
X113658445Y-103104848D01*
X113658202Y-103085091D01*
X113669618Y-102889373D01*
X113694746Y-102708483D01*
X113715853Y-102614644D01*
X113807404Y-102336127D01*
X113926639Y-102087068D01*
X114076029Y-101862916D01*
X114206203Y-101711708D01*
X114403736Y-101531316D01*
X114616483Y-101388508D01*
X114842055Y-101284711D01*
X115001167Y-101237230D01*
X115069361Y-101226219D01*
X115175847Y-101215779D01*
X115316585Y-101206048D01*
X115487534Y-101197168D01*
X115684656Y-101189278D01*
X115903911Y-101182519D01*
X116141259Y-101177031D01*
X116392660Y-101172955D01*
X116654075Y-101170430D01*
X116921464Y-101169597D01*
X116948500Y-101169612D01*
X117209261Y-101171780D01*
X117433505Y-101178835D01*
X117626921Y-101192370D01*
X117795196Y-101213979D01*
X117944020Y-101245256D01*
X118079081Y-101287794D01*
X118206066Y-101343186D01*
X118330665Y-101413026D01*
X118458565Y-101498908D01*
X118595455Y-101602425D01*
X118650685Y-101646452D01*
X118753972Y-101734756D01*
X118856709Y-101833602D01*
X118961324Y-101946179D01*
X119070245Y-102075675D01*
X119185897Y-102225278D01*
X119310708Y-102398178D01*
X119447105Y-102597563D01*
X119597516Y-102826622D01*
X119764366Y-103088543D01*
X119839170Y-103207900D01*
X119921054Y-103338220D01*
X119998325Y-103459574D01*
X120067360Y-103566399D01*
X120124535Y-103653131D01*
X120166230Y-103714208D01*
X120187000Y-103742041D01*
X120239917Y-103803698D01*
X123536628Y-103809307D01*
X126833340Y-103814917D01*
X126833337Y-86053072D01*
X126833333Y-68291227D01*
X128732748Y-64785852D01*
X130632162Y-61280477D01*
X149858333Y-61285780D01*
D11*
X150000000Y-58500000D03*
G36*
G01*
X158880000Y-119070000D02*
X158880000Y-118730000D01*
G75*
G02*
X159020000Y-118590000I140000J0D01*
G01*
X159300000Y-118590000D01*
G75*
G02*
X159440000Y-118730000I0J-140000D01*
G01*
X159440000Y-119070000D01*
G75*
G02*
X159300000Y-119210000I-140000J0D01*
G01*
X159020000Y-119210000D01*
G75*
G02*
X158880000Y-119070000I0J140000D01*
G01*
G37*
G36*
G01*
X157920000Y-119070000D02*
X157920000Y-118730000D01*
G75*
G02*
X158060000Y-118590000I140000J0D01*
G01*
X158340000Y-118590000D01*
G75*
G02*
X158480000Y-118730000I0J-140000D01*
G01*
X158480000Y-119070000D01*
G75*
G02*
X158340000Y-119210000I-140000J0D01*
G01*
X158060000Y-119210000D01*
G75*
G02*
X157920000Y-119070000I0J140000D01*
G01*
G37*
G36*
G01*
X168120000Y-117030000D02*
X168120000Y-117370000D01*
G75*
G02*
X167980000Y-117510000I-140000J0D01*
G01*
X167700000Y-117510000D01*
G75*
G02*
X167560000Y-117370000I0J140000D01*
G01*
X167560000Y-117030000D01*
G75*
G02*
X167700000Y-116890000I140000J0D01*
G01*
X167980000Y-116890000D01*
G75*
G02*
X168120000Y-117030000I0J-140000D01*
G01*
G37*
G36*
G01*
X169080000Y-117030000D02*
X169080000Y-117370000D01*
G75*
G02*
X168940000Y-117510000I-140000J0D01*
G01*
X168660000Y-117510000D01*
G75*
G02*
X168520000Y-117370000I0J140000D01*
G01*
X168520000Y-117030000D01*
G75*
G02*
X168660000Y-116890000I140000J0D01*
G01*
X168940000Y-116890000D01*
G75*
G02*
X169080000Y-117030000I0J-140000D01*
G01*
G37*
G36*
G01*
X162430000Y-112320000D02*
X162770000Y-112320000D01*
G75*
G02*
X162910000Y-112460000I0J-140000D01*
G01*
X162910000Y-112740000D01*
G75*
G02*
X162770000Y-112880000I-140000J0D01*
G01*
X162430000Y-112880000D01*
G75*
G02*
X162290000Y-112740000I0J140000D01*
G01*
X162290000Y-112460000D01*
G75*
G02*
X162430000Y-112320000I140000J0D01*
G01*
G37*
G36*
G01*
X162430000Y-113280000D02*
X162770000Y-113280000D01*
G75*
G02*
X162910000Y-113420000I0J-140000D01*
G01*
X162910000Y-113700000D01*
G75*
G02*
X162770000Y-113840000I-140000J0D01*
G01*
X162430000Y-113840000D01*
G75*
G02*
X162290000Y-113700000I0J140000D01*
G01*
X162290000Y-113420000D01*
G75*
G02*
X162430000Y-113280000I140000J0D01*
G01*
G37*
G36*
G01*
X135430000Y-112320000D02*
X135770000Y-112320000D01*
G75*
G02*
X135910000Y-112460000I0J-140000D01*
G01*
X135910000Y-112740000D01*
G75*
G02*
X135770000Y-112880000I-140000J0D01*
G01*
X135430000Y-112880000D01*
G75*
G02*
X135290000Y-112740000I0J140000D01*
G01*
X135290000Y-112460000D01*
G75*
G02*
X135430000Y-112320000I140000J0D01*
G01*
G37*
G36*
G01*
X135430000Y-113280000D02*
X135770000Y-113280000D01*
G75*
G02*
X135910000Y-113420000I0J-140000D01*
G01*
X135910000Y-113700000D01*
G75*
G02*
X135770000Y-113840000I-140000J0D01*
G01*
X135430000Y-113840000D01*
G75*
G02*
X135290000Y-113700000I0J140000D01*
G01*
X135290000Y-113420000D01*
G75*
G02*
X135430000Y-113280000I140000J0D01*
G01*
G37*
G36*
G01*
X131930000Y-119170000D02*
X131930000Y-118830000D01*
G75*
G02*
X132070000Y-118690000I140000J0D01*
G01*
X132350000Y-118690000D01*
G75*
G02*
X132490000Y-118830000I0J-140000D01*
G01*
X132490000Y-119170000D01*
G75*
G02*
X132350000Y-119310000I-140000J0D01*
G01*
X132070000Y-119310000D01*
G75*
G02*
X131930000Y-119170000I0J140000D01*
G01*
G37*
G36*
G01*
X130970000Y-119170000D02*
X130970000Y-118830000D01*
G75*
G02*
X131110000Y-118690000I140000J0D01*
G01*
X131390000Y-118690000D01*
G75*
G02*
X131530000Y-118830000I0J-140000D01*
G01*
X131530000Y-119170000D01*
G75*
G02*
X131390000Y-119310000I-140000J0D01*
G01*
X131110000Y-119310000D01*
G75*
G02*
X130970000Y-119170000I0J140000D01*
G01*
G37*
G36*
G01*
X164570000Y-123580000D02*
X164230000Y-123580000D01*
G75*
G02*
X164090000Y-123440000I0J140000D01*
G01*
X164090000Y-123160000D01*
G75*
G02*
X164230000Y-123020000I140000J0D01*
G01*
X164570000Y-123020000D01*
G75*
G02*
X164710000Y-123160000I0J-140000D01*
G01*
X164710000Y-123440000D01*
G75*
G02*
X164570000Y-123580000I-140000J0D01*
G01*
G37*
G36*
G01*
X164570000Y-122620000D02*
X164230000Y-122620000D01*
G75*
G02*
X164090000Y-122480000I0J140000D01*
G01*
X164090000Y-122200000D01*
G75*
G02*
X164230000Y-122060000I140000J0D01*
G01*
X164570000Y-122060000D01*
G75*
G02*
X164710000Y-122200000I0J-140000D01*
G01*
X164710000Y-122480000D01*
G75*
G02*
X164570000Y-122620000I-140000J0D01*
G01*
G37*
G36*
G01*
X137670000Y-123530000D02*
X137330000Y-123530000D01*
G75*
G02*
X137190000Y-123390000I0J140000D01*
G01*
X137190000Y-123110000D01*
G75*
G02*
X137330000Y-122970000I140000J0D01*
G01*
X137670000Y-122970000D01*
G75*
G02*
X137810000Y-123110000I0J-140000D01*
G01*
X137810000Y-123390000D01*
G75*
G02*
X137670000Y-123530000I-140000J0D01*
G01*
G37*
G36*
G01*
X137670000Y-122570000D02*
X137330000Y-122570000D01*
G75*
G02*
X137190000Y-122430000I0J140000D01*
G01*
X137190000Y-122150000D01*
G75*
G02*
X137330000Y-122010000I140000J0D01*
G01*
X137670000Y-122010000D01*
G75*
G02*
X137810000Y-122150000I0J-140000D01*
G01*
X137810000Y-122430000D01*
G75*
G02*
X137670000Y-122570000I-140000J0D01*
G01*
G37*
G36*
G01*
X142280000Y-116830000D02*
X142280000Y-117170000D01*
G75*
G02*
X142140000Y-117310000I-140000J0D01*
G01*
X141860000Y-117310000D01*
G75*
G02*
X141720000Y-117170000I0J140000D01*
G01*
X141720000Y-116830000D01*
G75*
G02*
X141860000Y-116690000I140000J0D01*
G01*
X142140000Y-116690000D01*
G75*
G02*
X142280000Y-116830000I0J-140000D01*
G01*
G37*
G36*
G01*
X141320000Y-116830000D02*
X141320000Y-117170000D01*
G75*
G02*
X141180000Y-117310000I-140000J0D01*
G01*
X140900000Y-117310000D01*
G75*
G02*
X140760000Y-117170000I0J140000D01*
G01*
X140760000Y-116830000D01*
G75*
G02*
X140900000Y-116690000I140000J0D01*
G01*
X141180000Y-116690000D01*
G75*
G02*
X141320000Y-116830000I0J-140000D01*
G01*
G37*
D12*
X137415000Y-111550000D03*
X137415000Y-110450000D03*
X135585000Y-110450000D03*
X135585000Y-111550000D03*
X162585000Y-111550000D03*
X162585000Y-110450000D03*
X164415000Y-110450000D03*
X164415000Y-111550000D03*
D13*
G36*
X139969114Y-112841906D02*
G01*
X140464089Y-112346931D01*
X140959064Y-112841906D01*
X140464089Y-113336881D01*
X139969114Y-112841906D01*
G37*
G36*
X140746931Y-112064089D02*
G01*
X141241906Y-111569114D01*
X141736881Y-112064089D01*
X141241906Y-112559064D01*
X140746931Y-112064089D01*
G37*
G36*
X142040936Y-113358094D02*
G01*
X142535911Y-112863119D01*
X143030886Y-113358094D01*
X142535911Y-113853069D01*
X142040936Y-113358094D01*
G37*
G36*
X141263119Y-114135911D02*
G01*
X141758094Y-113640936D01*
X142253069Y-114135911D01*
X141758094Y-114630886D01*
X141263119Y-114135911D01*
G37*
G36*
X168263119Y-114035911D02*
G01*
X168758094Y-113540936D01*
X169253069Y-114035911D01*
X168758094Y-114530886D01*
X168263119Y-114035911D01*
G37*
G36*
X169040936Y-113258094D02*
G01*
X169535911Y-112763119D01*
X170030886Y-113258094D01*
X169535911Y-113753069D01*
X169040936Y-113258094D01*
G37*
G36*
X167746931Y-111964089D02*
G01*
X168241906Y-111469114D01*
X168736881Y-111964089D01*
X168241906Y-112459064D01*
X167746931Y-111964089D01*
G37*
G36*
X166969114Y-112741906D02*
G01*
X167464089Y-112246931D01*
X167959064Y-112741906D01*
X167464089Y-113236881D01*
X166969114Y-112741906D01*
G37*
D12*
X143000000Y-118830000D03*
X144100000Y-118830000D03*
X144100000Y-117000000D03*
X143000000Y-117000000D03*
X169950000Y-117185000D03*
X171050000Y-117185000D03*
X171050000Y-119015000D03*
X169950000Y-119015000D03*
D13*
G36*
X141694005Y-121411020D02*
G01*
X142188980Y-121905995D01*
X141694005Y-122400970D01*
X141199030Y-121905995D01*
X141694005Y-121411020D01*
G37*
G36*
X142471822Y-122188837D02*
G01*
X142966797Y-122683812D01*
X142471822Y-123178787D01*
X141976847Y-122683812D01*
X142471822Y-122188837D01*
G37*
G36*
X141177817Y-123482842D02*
G01*
X141672792Y-123977817D01*
X141177817Y-124472792D01*
X140682842Y-123977817D01*
X141177817Y-123482842D01*
G37*
G36*
X140400000Y-122705025D02*
G01*
X140894975Y-123200000D01*
X140400000Y-123694975D01*
X139905025Y-123200000D01*
X140400000Y-122705025D01*
G37*
G36*
X167428178Y-122721213D02*
G01*
X167923153Y-123216188D01*
X167428178Y-123711163D01*
X166933203Y-123216188D01*
X167428178Y-122721213D01*
G37*
G36*
X168205995Y-123499030D02*
G01*
X168700970Y-123994005D01*
X168205995Y-124488980D01*
X167711020Y-123994005D01*
X168205995Y-123499030D01*
G37*
G36*
X169500000Y-122205025D02*
G01*
X169994975Y-122700000D01*
X169500000Y-123194975D01*
X169005025Y-122700000D01*
X169500000Y-122205025D01*
G37*
G36*
X168722183Y-121427208D02*
G01*
X169217158Y-121922183D01*
X168722183Y-122417158D01*
X168227208Y-121922183D01*
X168722183Y-121427208D01*
G37*
D12*
X135670000Y-124400000D03*
X135670000Y-125500000D03*
X137500000Y-125500000D03*
X137500000Y-124400000D03*
X164415000Y-124450000D03*
X164415000Y-125550000D03*
X162585000Y-125550000D03*
X162585000Y-124450000D03*
D13*
G36*
X133330886Y-123408094D02*
G01*
X132835911Y-123903069D01*
X132340936Y-123408094D01*
X132835911Y-122913119D01*
X133330886Y-123408094D01*
G37*
G36*
X132553069Y-124185911D02*
G01*
X132058094Y-124680886D01*
X131563119Y-124185911D01*
X132058094Y-123690936D01*
X132553069Y-124185911D01*
G37*
G36*
X131259064Y-122891906D02*
G01*
X130764089Y-123386881D01*
X130269114Y-122891906D01*
X130764089Y-122396931D01*
X131259064Y-122891906D01*
G37*
G36*
X132036881Y-122114089D02*
G01*
X131541906Y-122609064D01*
X131046931Y-122114089D01*
X131541906Y-121619114D01*
X132036881Y-122114089D01*
G37*
G36*
X158836881Y-121864089D02*
G01*
X158341906Y-122359064D01*
X157846931Y-121864089D01*
X158341906Y-121369114D01*
X158836881Y-121864089D01*
G37*
G36*
X158059064Y-122641906D02*
G01*
X157564089Y-123136881D01*
X157069114Y-122641906D01*
X157564089Y-122146931D01*
X158059064Y-122641906D01*
G37*
G36*
X159353069Y-123935911D02*
G01*
X158858094Y-124430886D01*
X158363119Y-123935911D01*
X158858094Y-123440936D01*
X159353069Y-123935911D01*
G37*
G36*
X160130886Y-123158094D02*
G01*
X159635911Y-123653069D01*
X159140936Y-123158094D01*
X159635911Y-122663119D01*
X160130886Y-123158094D01*
G37*
D12*
X130100000Y-117170000D03*
X129000000Y-117170000D03*
X129000000Y-119000000D03*
X130100000Y-119000000D03*
X157050000Y-118915000D03*
X155950000Y-118915000D03*
X155950000Y-117085000D03*
X157050000Y-117085000D03*
D13*
G36*
X132635911Y-113336881D02*
G01*
X132140936Y-112841906D01*
X132635911Y-112346931D01*
X133130886Y-112841906D01*
X132635911Y-113336881D01*
G37*
G36*
X131858094Y-112559064D02*
G01*
X131363119Y-112064089D01*
X131858094Y-111569114D01*
X132353069Y-112064089D01*
X131858094Y-112559064D01*
G37*
G36*
X130564089Y-113853069D02*
G01*
X130069114Y-113358094D01*
X130564089Y-112863119D01*
X131059064Y-113358094D01*
X130564089Y-113853069D01*
G37*
G36*
X131341906Y-114630886D02*
G01*
X130846931Y-114135911D01*
X131341906Y-113640936D01*
X131836881Y-114135911D01*
X131341906Y-114630886D01*
G37*
G36*
X158341906Y-114630886D02*
G01*
X157846931Y-114135911D01*
X158341906Y-113640936D01*
X158836881Y-114135911D01*
X158341906Y-114630886D01*
G37*
G36*
X157564089Y-113853069D02*
G01*
X157069114Y-113358094D01*
X157564089Y-112863119D01*
X158059064Y-113358094D01*
X157564089Y-113853069D01*
G37*
G36*
X158858094Y-112559064D02*
G01*
X158363119Y-112064089D01*
X158858094Y-111569114D01*
X159353069Y-112064089D01*
X158858094Y-112559064D01*
G37*
G36*
X159635911Y-113336881D02*
G01*
X159140936Y-112841906D01*
X159635911Y-112346931D01*
X160130886Y-112841906D01*
X159635911Y-113336881D01*
G37*
D14*
X152300000Y-141300000D03*
X148300000Y-141300000D03*
M02*
